<svg width="12" height="12" viewBox="0 0 12 12" fill="none" xmlns="http://www.w3.org/2000/svg">
<path d="M11.25 5.97852H0.75C0.336492 5.97852 0 6.31626 0 6.7313C0 7.14635 0.336492 7.48409 0.75 7.48409H11.25C11.6635 7.48409 12 7.14635 12 6.7313C12 6.31626 11.6635 5.97852 11.25 5.97852Z" fill="#F0635A"/>
<path d="M11.3183 6.9902C11.1828 6.95207 11.0468 7.02935 11.0093 7.16285L10.9898 7.23161H1.00926L0.989264 7.16285C0.951764 7.02935 0.814772 6.95308 0.680264 6.9902C0.547256 7.02834 0.470756 7.16737 0.508772 7.30035L1.19776 9.72132C1.41126 10.4716 2.10327 10.9955 2.88027 10.9955H9.11776C9.89526 10.9955 10.5868 10.4716 10.8003 9.72132L11.4893 7.30035C11.5278 7.16734 11.4508 7.02834 11.3183 6.9902ZM2.88076 9.9918C2.54776 9.9918 2.25076 9.76747 2.15976 9.44577L1.83526 8.30455C1.79727 8.17105 1.87426 8.03253 2.00676 7.9944C2.14075 7.95627 2.27826 8.03404 2.31576 8.16705L2.64025 9.30827C2.67126 9.41517 2.76974 9.49045 2.88074 9.49045C3.01874 9.49045 3.13075 9.60287 3.13075 9.74138C3.13077 9.8799 3.01876 9.9918 2.88076 9.9918Z" fill="#F0635A"/>
<path d="M3.3618 10.5202C3.23831 10.4595 3.0888 10.5081 3.02629 10.6326L2.5263 11.6363C2.4648 11.7603 2.51479 11.9108 2.63831 11.9731C2.6748 11.9912 2.71282 11.9997 2.75032 11.9997C2.84182 11.9997 2.92983 11.949 2.97382 11.8607L3.47381 10.857C3.53531 10.733 3.48529 10.5824 3.3618 10.5202Z" fill="#F0635A"/>
<path d="M9.47381 11.6368L8.97381 10.6331C8.91182 10.5086 8.76182 10.4589 8.6383 10.5206C8.51481 10.5829 8.4648 10.7334 8.5263 10.8574L9.02629 11.8611C9.07028 11.9489 9.15829 11.9996 9.24979 11.9996C9.28729 11.9996 9.32528 11.9911 9.3618 11.9735C9.48531 11.9113 9.53531 11.7607 9.47381 11.6368Z" fill="#F0635A"/>
<path d="M10.0431 0C9.78809 0 9.54809 0.099862 9.3676 0.281049L8.5741 1.0775C8.4766 1.17536 8.4766 1.33446 8.5741 1.43232C8.6716 1.53018 8.83011 1.53018 8.92761 1.43232L9.72109 0.636364C9.80659 0.550053 9.92108 0.502368 10.0456 0.502368C10.2966 0.502368 10.5006 0.707126 10.5006 0.959051V6.22856C10.5006 6.36708 10.6126 6.4795 10.7506 6.4795C10.8886 6.4795 11.0006 6.36708 11.0011 6.22807V0.958557C11.0011 0.4301 10.5731 0 10.0431 0Z" fill="#F0635A"/>
<path d="M9.17726 1.3295L8.67727 0.827651C8.62027 0.770439 8.54077 0.743833 8.45977 0.757383L7.20977 0.963153C7.11778 0.978208 7.04227 1.04344 7.01278 1.13178C6.98327 1.22011 7.00577 1.31847 7.07079 1.38521L8.57079 2.93595C8.6183 2.98563 8.68378 3.01224 8.74978 3.01224C8.77329 3.01224 8.79729 3.00874 8.82077 3.0017C8.90977 2.97561 8.97727 2.90184 8.99527 2.81049L9.24527 1.55586C9.26175 1.47404 9.23625 1.38921 9.17726 1.3295Z" fill="#F0635A"/>
<path d="M5.92663 3.04019C5.82912 2.94233 5.67062 2.94233 5.57312 3.04019L5.07312 3.54204C4.97563 3.63991 4.97563 3.799 5.07312 3.89687C5.12213 3.94554 5.18612 3.97015 5.25013 3.97015C5.31413 3.97015 5.37812 3.94556 5.42663 3.89687L5.92663 3.39502C6.02412 3.29713 6.02412 3.13806 5.92663 3.04019Z" fill="#F0635A"/>
<path d="M6.92663 4.0441C6.82913 3.94624 6.67062 3.94624 6.57312 4.0441L6.07312 4.54595C5.97563 4.64381 5.97563 4.80291 6.07312 4.90077C6.12213 4.94944 6.18612 4.97405 6.25013 4.97405C6.31413 4.97405 6.37812 4.94947 6.42663 4.90077L6.92663 4.39892C7.02413 4.30106 7.02413 4.14196 6.92663 4.0441Z" fill="#F0635A"/>
<path d="M7.42663 2.53824C7.32913 2.44038 7.17062 2.44038 7.07312 2.53824L6.57312 3.04009C6.47563 3.13795 6.47563 3.29705 6.57312 3.39491C6.62213 3.44359 6.68612 3.46819 6.75013 3.46819C6.81413 3.46819 6.87812 3.44361 6.92663 3.39491L7.42663 2.89306C7.52413 2.7952 7.52413 2.6361 7.42663 2.53824Z" fill="#F0635A"/>
</svg>
