<svg width="185" height="187" viewBox="0 0 185 187" fill="none" xmlns="http://www.w3.org/2000/svg">
<path d="M83.4692 1.57566V29.521C52.0831 34.0275 27.9513 61.029 27.9513 93.6474C27.9513 129.421 56.9501 158.421 92.7221 158.421C107.268 158.421 120.703 153.628 131.511 145.522L151.284 165.297C135.332 178.344 114.929 186.182 92.7221 186.182C41.618 186.182 0.192383 144.754 0.192383 93.6474C0.192383 45.6683 36.7139 6.21163 83.4692 1.57566V1.57566ZM184.789 102.901C182.939 121.509 175.592 138.499 164.368 152.203L144.594 132.438C150.951 123.962 155.263 113.875 156.836 102.901H184.798H184.789ZM101.994 1.57566C145.705 5.91552 180.459 40.6807 184.808 84.3939H156.845C152.792 56.0321 130.354 33.5926 101.994 29.5303V1.56641V1.57566Z" fill="#4A43EC"/>
<path d="M75.4736 46.2699C83.2685 43.8904 90.3249 42.7007 96.6429 42.7007C106.571 42.7007 114.612 45.8186 120.766 52.0545C126.263 57.634 129.012 64.6904 129.012 73.2237V87.2545C129.012 91.0289 127.699 94.2289 125.074 96.8545C122.448 99.4801 119.33 100.793 115.72 100.793H90.489C83.3506 100.793 78.3865 103.131 75.5967 107.808C74.0377 110.188 73.2582 113.183 73.2582 116.793C73.2582 128.772 81.1762 134.762 97.0121 134.762C101.607 134.762 106.407 134.065 111.412 132.67V137.962L105.012 145.839C102.386 146.66 98.5711 147.152 93.5659 147.316C84.2121 147.316 76.4993 145.183 70.4275 140.916C62.3044 135.419 58.2429 127.213 58.2429 116.301C58.2429 108.752 60.2941 102.721 64.3967 98.2084C70.2224 91.5622 79.4531 88.2391 92.089 88.2391H110.92C112.971 88.2391 113.997 87.2135 113.997 85.1622V74.0853C113.997 68.5058 112.11 64.034 108.335 60.6699C104.643 57.2237 99.7608 55.5007 93.689 55.5007C89.6685 55.5007 83.5967 56.4032 75.4736 58.2084V46.2699Z" fill="#F0635A"/>
</svg>
