<svg width="47" height="55" viewBox="0 0 47 55" fill="none" xmlns="http://www.w3.org/2000/svg">
<path d="M21.242 8.14489V15.1312C13.3955 16.2578 7.36258 23.0082 7.36258 31.1628C7.36258 40.1063 14.6123 47.3563 23.5553 47.3563C27.1917 47.3563 30.5505 46.158 33.2524 44.1315L38.1958 49.0752C34.2078 52.337 29.1071 54.2964 23.5553 54.2964C10.7792 54.2964 0.422852 43.9395 0.422852 31.1628C0.422852 19.1681 9.55323 9.30388 21.242 8.14489ZM46.5721 33.4762C46.1094 38.1283 44.2727 42.3757 41.4667 45.8018L36.5233 40.8604C38.1125 38.7414 39.1905 36.2198 39.5838 33.4762H46.5744H46.5721ZM25.8732 8.14489C36.8009 9.22986 45.4895 17.9212 46.5767 28.8495H39.5861C38.5729 21.759 32.9633 16.1491 25.8732 15.1336V8.14258V8.14489Z" fill="#4A43EC"/>
<path d="M19.2432 18.8184C21.1919 18.2236 22.956 17.9261 24.5355 17.9261C27.0175 17.9261 29.0278 18.7056 30.5662 20.2646C31.9406 21.6595 32.6278 23.4236 32.6278 25.5569V29.0646C32.6278 30.0082 32.2996 30.8082 31.6432 31.4646C30.9868 32.121 30.2073 32.4492 29.3047 32.4492H22.997C21.2124 32.4492 19.9714 33.0338 19.2739 34.2031C18.8842 34.7979 18.6893 35.5467 18.6893 36.4492C18.6893 39.4441 20.6688 40.9415 24.6278 40.9415C25.7765 40.9415 26.9765 40.7672 28.2278 40.4184V41.7415L26.6278 43.7108C25.9714 43.9159 25.0175 44.039 23.7662 44.08C21.4278 44.08 19.4996 43.5467 17.9816 42.48C15.9509 41.1056 14.9355 39.0543 14.9355 36.3261C14.9355 34.439 15.4483 32.9313 16.4739 31.8031C17.9303 30.1415 20.238 29.3108 23.397 29.3108H28.1047C28.6175 29.3108 28.8739 29.0543 28.8739 28.5415V25.7723C28.8739 24.3774 28.4021 23.2595 27.4585 22.4184C26.5355 21.5569 25.315 21.1261 23.797 21.1261C22.7919 21.1261 21.2739 21.3518 19.2432 21.8031V18.8184Z" fill="#F0635A"/>
</svg>
