<svg width="375" height="446" viewBox="0 0 375 446" fill="none" xmlns="http://www.w3.org/2000/svg">
<g clip-path="url(#clip0_416_8114)">
<path opacity="0.9" d="M62.0519 206.259C64.146 234.986 40.5965 275.114 78.4558 294.018C128.972 319.271 166.923 268.385 210.458 261.977C243.716 257.061 294.957 315.747 338.694 284.481C382.432 253.216 318.525 200.795 318.589 172.54C318.589 144.588 379.722 100.692 337.078 67.6478C295.26 35.2526 239.482 86.4508 196.369 93.4746C158.124 99.6804 71.3193 49.0556 40.3302 89.5706C10.9943 127.944 60.0313 178.535 62.0519 206.259Z" fill="#F0F0F0"/>
<path d="M179.358 305.925L180.615 307.3L181.991 306.043L183.24 307.41L184.616 306.152L185.865 307.528L187.241 306.271L188.498 307.638L189.865 306.38L191.123 307.756L192.49 306.498L193.748 307.866L195.115 306.617L196.373 307.984L197.74 306.726L198.997 308.102L200.365 306.845L201.622 308.212L202.99 306.954L204.247 308.33L205.623 307.072L206.872 308.44L208.248 307.182L209.497 308.558L210.873 307.3L212.122 308.668L213.497 307.418L214.755 308.786L216.122 307.528L217.38 308.895L218.747 307.646L220.005 309.014L221.372 307.756L222.629 309.123L223.997 307.874L224.672 308.6L226.706 306.811L222.368 299.746L221.777 293.298L177.188 302.295L178.142 307.047L179.358 305.925Z" fill="#263238"/>
<path opacity="0.7" d="M179.358 305.925L180.615 307.3L181.991 306.043L183.24 307.41L184.616 306.152L185.865 307.528L187.241 306.271L188.498 307.638L189.865 306.38L191.123 307.756L192.49 306.498L193.748 307.866L195.115 306.617L196.373 307.984L197.74 306.726L198.997 308.102L200.365 306.845L201.622 308.212L202.99 306.954L204.247 308.33L205.623 307.072L206.872 308.44L208.248 307.182L209.497 308.558L210.873 307.3L212.122 308.668L213.497 307.418L214.755 308.786L216.122 307.528L217.38 308.895L218.747 307.646L220.005 309.014L221.372 307.756L222.629 309.123L223.997 307.874L224.672 308.6L226.706 306.811L222.368 299.746L221.777 293.298L177.188 302.295L178.142 307.047L179.358 305.925Z" fill="white"/>
<path d="M236.108 304.743C233.872 302.388 230.951 296.041 231.044 292.8C231.053 292.674 231.079 292.549 231.12 292.429C231.188 292.212 231.199 291.981 231.151 291.758C231.104 291.536 230.999 291.329 230.848 291.159C230.696 290.989 230.503 290.861 230.288 290.788C230.072 290.715 229.841 290.698 229.618 290.741L222.748 292.125C222.084 292.26 221.485 292.615 221.048 293.133C220.612 293.651 220.363 294.301 220.342 294.978L220.157 300.565C220.136 301.268 220.363 301.955 220.798 302.506L225.406 308.414C225.75 308.854 226.208 309.19 226.732 309.384C227.255 309.578 227.822 309.622 228.369 309.512L236.505 307.866C236.758 307.814 236.99 307.69 237.173 307.508C237.355 307.326 237.48 307.094 237.533 306.842C237.585 306.589 237.562 306.327 237.466 306.087C237.37 305.847 237.206 305.641 236.994 305.494C236.676 305.272 236.38 305.02 236.108 304.743ZM228.191 306.473C226.352 305.089 224.756 300.388 224.326 298.126C224.183 297.366 223.988 295.594 224.495 295.045C224.849 294.64 226.073 294.471 226.959 294.404C227.066 294.395 227.173 294.413 227.271 294.455C227.37 294.497 227.456 294.563 227.523 294.646C227.591 294.729 227.637 294.827 227.658 294.932C227.678 295.037 227.673 295.145 227.643 295.248C227.495 295.632 227.443 296.046 227.491 296.455C227.677 297.037 229.12 297.493 229.331 298.067C229.542 298.641 228.858 299.637 229.086 300.101C229.314 300.565 230.614 300.742 230.892 301.19C231.171 301.637 230.732 303.013 230.968 303.553C231.291 304.031 231.69 304.453 232.15 304.802C232.227 304.863 232.29 304.94 232.333 305.029C232.375 305.117 232.398 305.214 232.398 305.313C232.398 305.411 232.375 305.508 232.333 305.596C232.29 305.685 232.227 305.762 232.15 305.823C231.643 306.247 231.074 306.588 230.462 306.836C229.675 306.959 228.869 306.832 228.158 306.473H228.191Z" fill="#4A43EC"/>
<path opacity="0.3" d="M236.108 304.743C233.872 302.388 230.951 296.041 231.044 292.8C231.053 292.674 231.079 292.549 231.12 292.429C231.188 292.212 231.199 291.981 231.151 291.758C231.104 291.536 230.999 291.329 230.848 291.159C230.696 290.989 230.503 290.861 230.288 290.788C230.072 290.715 229.841 290.698 229.618 290.741L222.748 292.125C222.084 292.26 221.485 292.615 221.048 293.133C220.612 293.651 220.363 294.301 220.342 294.978L220.157 300.565C220.136 301.268 220.363 301.955 220.798 302.506L225.406 308.414C225.75 308.854 226.208 309.19 226.732 309.384C227.255 309.578 227.822 309.622 228.369 309.512L236.505 307.866C236.758 307.814 236.99 307.69 237.173 307.508C237.355 307.326 237.48 307.094 237.533 306.842C237.585 306.589 237.562 306.327 237.466 306.087C237.37 305.847 237.206 305.641 236.994 305.494C236.676 305.272 236.38 305.02 236.108 304.743ZM228.191 306.473C226.352 305.089 224.756 300.388 224.326 298.126C224.183 297.366 223.988 295.594 224.495 295.045C224.849 294.64 226.073 294.471 226.959 294.404C227.066 294.395 227.173 294.413 227.271 294.455C227.37 294.497 227.456 294.563 227.523 294.646C227.591 294.729 227.637 294.827 227.658 294.932C227.678 295.037 227.673 295.145 227.643 295.248C227.495 295.632 227.443 296.046 227.491 296.455C227.677 297.037 229.12 297.493 229.331 298.067C229.542 298.641 228.858 299.637 229.086 300.101C229.314 300.565 230.614 300.742 230.892 301.19C231.171 301.637 230.732 303.013 230.968 303.553C231.291 304.031 231.69 304.453 232.15 304.802C232.227 304.863 232.29 304.94 232.333 305.029C232.375 305.117 232.398 305.214 232.398 305.313C232.398 305.411 232.375 305.508 232.333 305.596C232.29 305.685 232.227 305.762 232.15 305.823C231.643 306.247 231.074 306.588 230.462 306.836C229.675 306.959 228.869 306.832 228.158 306.473H228.191Z" fill="white"/>
<path d="M278.012 131.208C280.453 131.106 282.759 130.066 284.452 128.305C286.329 126.426 287.384 123.879 287.384 121.224C287.384 118.568 286.329 116.021 284.452 114.143C282.987 112.58 281.017 111.584 278.89 111.332C276.956 111.227 275.018 111.227 273.084 111.332C270.956 111.578 268.985 112.571 267.522 114.134L260.44 121.215L267.522 128.296C268.991 129.853 270.959 130.847 273.084 131.107C274.316 131.234 276.78 131.242 278.012 131.208Z" fill="#4A43EC"/>
<path opacity="0.3" d="M278.012 131.208C280.453 131.106 282.759 130.066 284.452 128.305C286.329 126.426 287.384 123.879 287.384 121.224C287.384 118.568 286.329 116.021 284.452 114.143C282.987 112.58 281.017 111.584 278.89 111.332C276.956 111.227 275.018 111.227 273.084 111.332C270.956 111.578 268.985 112.571 267.522 114.134L260.44 121.215L267.522 128.296C268.991 129.853 270.959 130.847 273.084 131.107C274.316 131.234 276.78 131.242 278.012 131.208Z" fill="white"/>
<path d="M270.281 114.143C271.682 112.741 273.467 111.786 275.411 111.399C277.354 111.011 279.369 111.209 281.2 111.967C283.031 112.725 284.596 114.009 285.697 115.657C286.799 117.305 287.386 119.242 287.386 121.224C287.386 123.206 286.799 125.143 285.697 126.791C284.596 128.438 283.031 129.722 281.2 130.48C279.369 131.238 277.354 131.436 275.411 131.049C273.467 130.662 271.682 129.707 270.281 128.305L263.2 121.224L270.281 114.143Z" fill="#4A43EC"/>
<path opacity="0.6" d="M270.281 114.143C271.682 112.741 273.467 111.786 275.411 111.399C277.354 111.011 279.369 111.209 281.2 111.967C283.031 112.725 284.596 114.009 285.697 115.657C286.799 117.305 287.386 119.242 287.386 121.224C287.386 123.206 286.799 125.143 285.697 126.791C284.596 128.438 283.031 129.722 281.2 130.48C279.369 131.238 277.354 131.436 275.411 131.049C273.467 130.662 271.682 129.707 270.281 128.305L263.2 121.224L270.281 114.143Z" fill="white"/>
<path d="M252.279 112.716L260.685 121.123H263.04L254.634 112.716H252.279Z" fill="#263238"/>
<path opacity="0.7" d="M252.279 112.716L260.685 121.123H263.04L254.634 112.716H252.279Z" fill="white"/>
<path d="M252.279 112.716L252.853 112.142C253.042 111.952 253.267 111.801 253.514 111.698C253.762 111.596 254.028 111.543 254.296 111.543H254.904C254.977 111.544 255.049 111.567 255.111 111.608C255.172 111.649 255.22 111.707 255.249 111.775C255.277 111.843 255.285 111.918 255.272 111.991C255.259 112.064 255.225 112.131 255.174 112.184L254.634 112.716H252.279Z" fill="#263238"/>
<path opacity="0.5" d="M252.279 112.716L252.853 112.142C253.042 111.952 253.267 111.801 253.514 111.698C253.762 111.596 254.028 111.543 254.296 111.543H254.904C254.977 111.544 255.049 111.567 255.111 111.608C255.172 111.649 255.22 111.707 255.249 111.775C255.277 111.843 255.285 111.918 255.272 111.991C255.259 112.064 255.225 112.131 255.174 112.184L254.634 112.716H252.279Z" fill="white"/>
<g opacity="0.7">
<path opacity="0.7" d="M281.844 124.456C282.611 123.393 282.974 122.091 282.869 120.785C282.764 119.478 282.197 118.251 281.27 117.324C280.343 116.397 279.116 115.83 277.81 115.725C276.503 115.62 275.201 115.984 274.138 116.75L281.844 124.456Z" fill="white"/>
<path opacity="0.7" d="M272.889 118C272.122 119.063 271.759 120.364 271.864 121.671C271.969 122.978 272.536 124.204 273.463 125.131C274.39 126.058 275.617 126.625 276.923 126.73C278.23 126.836 279.532 126.472 280.595 125.705L272.889 118Z" fill="white"/>
</g>
<path d="M316.921 124.068L312.591 126.043C312.591 126.043 318.322 137.589 320.061 141.522C321.901 145.657 326.197 156.553 327.901 160.883C327.992 161.116 328.13 161.327 328.306 161.505C328.481 161.682 328.691 161.822 328.923 161.915C329.155 162.008 329.403 162.053 329.652 162.047C329.902 162.041 330.148 161.984 330.374 161.879L332.324 160.951C332.551 160.846 332.754 160.696 332.921 160.509C333.088 160.323 333.214 160.104 333.294 159.867C333.373 159.63 333.402 159.379 333.381 159.13C333.359 158.881 333.287 158.639 333.168 158.419C331.007 154.292 325.572 143.843 323.631 139.724C321.85 135.884 316.921 124.068 316.921 124.068Z" fill="#4A43EC"/>
<path opacity="0.5" d="M316.921 124.068L312.591 126.043C312.591 126.043 318.322 137.589 320.061 141.522C321.901 145.657 326.197 156.553 327.901 160.883C327.992 161.116 328.13 161.327 328.306 161.505C328.481 161.682 328.691 161.822 328.923 161.915C329.155 162.008 329.403 162.053 329.652 162.047C329.902 162.041 330.148 161.984 330.374 161.879L332.324 160.951C332.551 160.846 332.754 160.696 332.921 160.509C333.088 160.323 333.214 160.104 333.294 159.867C333.373 159.63 333.402 159.379 333.381 159.13C333.359 158.881 333.287 158.639 333.168 158.419C331.007 154.292 325.572 143.843 323.631 139.724C321.85 135.884 316.921 124.068 316.921 124.068Z" fill="white"/>
<path d="M306.236 122.507C307.2 121.549 308.217 120.648 309.283 119.806C310.218 119.108 311.291 118.619 312.431 118.371C314.87 117.856 318.744 117.628 323.133 122.042L322.053 122.532C322.053 122.532 317.394 118.371 316.204 120.92C315.858 121.671 316.964 124.144 316.964 124.144L312.634 126.119C312.383 125.654 312.041 125.244 311.629 124.913C311.217 124.583 310.743 124.338 310.235 124.193C309.727 124.048 309.195 124.007 308.671 124.071C308.146 124.135 307.64 124.303 307.182 124.566L306.236 122.507Z" fill="#263238"/>
<path opacity="0.6" d="M306.236 122.507C307.2 121.549 308.217 120.648 309.283 119.806C310.218 119.108 311.291 118.619 312.431 118.371C314.87 117.856 318.744 117.628 323.133 122.042L322.053 122.532C322.053 122.532 317.394 118.371 316.204 120.92C315.858 121.671 316.964 124.144 316.964 124.144L312.634 126.119C312.383 125.654 312.041 125.244 311.629 124.913C311.217 124.583 310.743 124.338 310.235 124.193C309.727 124.048 309.195 124.007 308.671 124.071C308.146 124.135 307.64 124.303 307.182 124.566L306.236 122.507Z" fill="white"/>
<path d="M304.996 121.582L304.566 121.778C303.87 122.096 303.564 122.917 303.881 123.612L304.827 125.685C305.145 126.381 305.966 126.687 306.661 126.37L307.091 126.174C307.787 125.856 308.093 125.035 307.776 124.34L306.83 122.267C306.512 121.571 305.691 121.265 304.996 121.582Z" fill="#263238"/>
<path opacity="0.4" d="M304.996 121.582L304.566 121.778C303.87 122.096 303.564 122.917 303.881 123.612L304.827 125.685C305.145 126.381 305.966 126.687 306.661 126.37L307.091 126.174C307.787 125.856 308.093 125.035 307.776 124.34L306.83 122.267C306.512 121.571 305.691 121.265 304.996 121.582Z" fill="white"/>
<path d="M113.394 194.366H45.3057V251.032H113.394V194.366Z" fill="#263238"/>
<path opacity="0.7" d="M113.394 194.366H45.3057V251.032H113.394V194.366Z" fill="white"/>
<path d="M104.669 209.461H75.9004V245.202H104.669V209.461Z" fill="#4A43EC"/>
<path d="M71.5118 209.461H53.2007V239.195H71.5118V209.461Z" fill="#4A43EC"/>
<path opacity="0.7" d="M69.8521 211.122H54.8608V237.535H69.8521V211.122Z" fill="white"/>
<path opacity="0.5" d="M57.2051 237.535H63.4506L69.8517 213.611V211.122H64.2702L57.2051 237.535Z" fill="white"/>
<path opacity="0.7" d="M89.2118 211.744H78.1836V245.202H89.2118V211.744Z" fill="white"/>
<path opacity="0.7" d="M102.376 211.744H91.3481V245.202H102.376V211.744Z" fill="white"/>
<path d="M111.765 168.492H54.6221V195.155H111.765V168.492Z" fill="#263238"/>
<path opacity="0.7" d="M111.765 168.492H54.6221V195.155H111.765V168.492Z" fill="white"/>
<path d="M82.8302 176.792H64.519V184.822H82.8302V176.792Z" fill="#4A43EC"/>
<path opacity="0.7" d="M81.1705 178.452H66.1792V183.162H81.1705V178.452Z" fill="white"/>
<path d="M102.875 176.792H84.5635V184.822H102.875V176.792Z" fill="#4A43EC"/>
<path opacity="0.7" d="M101.215 178.452H86.2236V183.162H101.215V178.452Z" fill="white"/>
<path opacity="0.5" d="M69.9248 183.162H76.1703L77.4256 178.452H71.1801L69.9248 183.162Z" fill="white"/>
<path opacity="0.5" d="M89.9692 183.162H96.2148L97.4701 178.452H91.2246L89.9692 183.162Z" fill="white"/>
<path d="M128.116 202.075H36.5703L44.5691 186.658H125.833L128.116 202.075Z" fill="#4A43EC"/>
<path d="M128.116 202.075H36.5703L44.5691 186.658H125.833L128.116 202.075Z" fill="#4A43EC"/>
<path d="M114.774 174.966H48.6772L53.8334 165.017H113.301L114.774 174.966Z" fill="#4A43EC"/>
<path d="M114.774 174.966H48.6772L53.8334 165.017H113.301L114.774 174.966Z" fill="#4A43EC"/>
<path d="M113.394 245.202H36.5703V251.032H113.394V245.202Z" fill="#263238"/>
<path opacity="0.5" d="M113.394 245.202H36.5703V251.032H113.394V245.202Z" fill="white"/>
<path d="M109.659 153.408V199.056H194.357V153.408L152.008 130.967L109.659 153.408Z" fill="#4A43EC"/>
<path opacity="0.5" d="M109.659 153.408V199.056H194.357V153.408L152.008 130.967L109.659 153.408Z" fill="white"/>
<path d="M194.357 195.155H109.659V251.043H194.357V195.155Z" fill="#4A43EC"/>
<path opacity="0.5" d="M194.357 195.155H109.659V251.043H194.357V195.155Z" fill="white"/>
<path d="M183.848 186.087H120.158V158.097L152.008 140.387L183.848 158.097V186.087Z" fill="#4A43EC"/>
<path opacity="0.8" d="M183.848 186.087H120.158V158.097L152.008 140.387L183.848 158.097V186.087Z" fill="white"/>
<path d="M151.137 162.019H132.826V180.33H151.137V162.019Z" fill="#4A43EC"/>
<path opacity="0.7" d="M149.478 163.689H134.486V178.68H149.478V163.689Z" fill="white"/>
<path d="M171.18 162.019H152.869V180.33H171.18V162.019Z" fill="#4A43EC"/>
<path opacity="0.7" d="M169.521 163.689H154.529V178.68H169.521V163.689Z" fill="white"/>
<path d="M186.13 208.642H117.876V251.032H186.13V208.642Z" fill="#263238"/>
<path opacity="0.3" d="M186.13 208.642H117.876V251.032H186.13V208.642Z" fill="white"/>
<path opacity="0.5" d="M136.873 178.669H143.118L147.123 163.678H140.877L136.873 178.669Z" fill="white"/>
<path opacity="0.5" d="M156.916 178.669H163.161L167.176 163.678H160.92L156.916 178.669Z" fill="white"/>
<path d="M202.429 162.527L152.008 135.076L101.588 162.527L98.8594 157.506L152.008 128.571L205.157 157.506L202.429 162.527Z" fill="#4A43EC"/>
<path d="M197.781 202.074H106.225L108.518 191.223H195.498L197.781 202.074Z" fill="#4A43EC"/>
<path d="M186.649 162.019L152.008 143.158L117.357 162.019L115.179 158.004L152.008 137.96L188.838 158.004L186.649 162.019Z" fill="#4A43EC"/>
<path opacity="0.5" d="M131.186 210.935H120.158V251.043H131.186V210.935Z" fill="white"/>
<path opacity="0.5" d="M144.352 210.935H133.324V251.043H144.352V210.935Z" fill="white"/>
<path opacity="0.5" d="M157.517 210.935H146.489V251.043H157.517V210.935Z" fill="white"/>
<path opacity="0.5" d="M170.683 210.935H159.655V251.043H170.683V210.935Z" fill="white"/>
<path opacity="0.5" d="M183.848 210.935H172.82V251.043H183.848V210.935Z" fill="white"/>
<path d="M193.787 256.759H110.23V254.332H109.089V256.759H37.1412V254.332H36V257.9H109.089V260.909H194.928V254.342H193.787V256.759ZM193.787 259.757H110.23V257.9H193.787V259.757Z" fill="#263238"/>
<g opacity="0.2">
<path opacity="0.2" d="M193.787 256.759H110.23V254.332H109.089V256.759H37.1412V254.332H36V257.9H109.089V260.909H194.928V254.342H193.787V256.759ZM193.787 259.757H110.23V257.9H193.787V259.757Z" fill="white"/>
</g>
<path d="M209.028 264.25H193.788V279.811H251.813V264.25H209.028ZM194.929 265.391H207.887V271.439H194.929V265.391ZM207.887 278.639H194.929V272.58H207.887V278.639ZM229.279 278.639H209.028V272.58H229.279V278.639ZM250.671 278.639H230.399V272.58H250.651L250.671 278.639ZM230.399 271.439H209.028V265.391H250.671V271.439H230.399Z" fill="#263238"/>
<path opacity="0.2" d="M209.028 264.25H193.788V279.811H251.813V264.25H209.028ZM194.929 265.391H207.887V271.439H194.929V265.391ZM207.887 278.639H194.929V272.58H207.887V278.639ZM229.279 278.639H209.028V272.58H229.279V278.639ZM250.671 278.639H230.399V272.58H250.651L250.671 278.639ZM230.399 271.439H209.028V265.391H250.671V271.439H230.399Z" fill="white"/>
<path d="M92.6595 387.404C92.6595 387.404 97.1749 377.073 92.8198 376.837C88.4648 376.601 92.6595 387.404 92.6595 387.404Z" fill="#4A43EC"/>
<path d="M100.821 379.538C100.821 379.538 109.346 373.368 105.328 370.254C101.311 367.139 100.821 379.538 100.821 379.538Z" fill="#4A43EC"/>
<path d="M123.078 382.087C123.078 382.087 133.687 385.969 132.995 381.074C132.303 376.179 123.078 382.087 123.078 382.087Z" fill="#4A43EC"/>
<path d="M105.472 377.858C105.472 377.858 117.406 380.036 112.755 385.269C108.105 390.502 105.472 377.858 105.472 377.858Z" fill="#4A43EC"/>
<path d="M88.1868 396.57C88.1868 396.57 87.9926 385.387 84.2453 387.733C80.4979 390.08 88.1868 396.57 88.1868 396.57Z" fill="#4A43EC"/>
<path d="M110.257 377.58C110.257 377.58 122.571 379.386 120.857 373.824C119.144 368.262 110.257 377.58 110.257 377.58Z" fill="#4A43EC"/>
<path d="M119.119 380.01C119.119 380.01 126.048 388.037 120.807 389.125C115.566 390.214 119.119 380.01 119.119 380.01Z" fill="#4A43EC"/>
<path d="M95.5459 383.707C95.5459 383.707 104.72 378.981 104.332 385.091C103.944 391.202 95.5459 383.707 95.5459 383.707Z" fill="#4A43EC"/>
<g opacity="0.4">
<path opacity="0.4" d="M88.1868 396.57C88.1868 396.57 87.9926 385.387 84.2453 387.733C80.4979 390.08 88.1868 396.57 88.1868 396.57Z" fill="white"/>
<path opacity="0.4" d="M110.257 377.58C110.257 377.58 122.571 379.386 120.858 373.824C119.145 368.262 110.257 377.58 110.257 377.58Z" fill="white"/>
<path opacity="0.4" d="M119.119 380.011C119.119 380.011 126.049 388.037 120.807 389.126C115.566 390.215 119.119 380.011 119.119 380.011Z" fill="white"/>
<path opacity="0.4" d="M95.5464 383.707C95.5464 383.707 104.721 378.981 104.332 385.092C103.944 391.202 95.5464 383.707 95.5464 383.707Z" fill="white"/>
</g>
<path d="M89.8574 392.485C89.8574 392.485 98.1793 384.999 99.6731 391.194C101.167 397.388 89.8574 392.485 89.8574 392.485Z" fill="#4A43EC"/>
<path d="M85.7642 402.309C87.0196 395.675 89.8893 389.451 94.1198 384.188C102.627 374.06 114.705 375.934 124.993 382.391C125.837 382.906 124.85 384.079 124.04 383.555C118.587 380.129 112.021 377.234 105.472 378.618C100.737 379.622 96.9387 382.838 94.1366 386.628C90.7417 391.382 88.3996 396.806 87.2665 402.537C87.0808 403.482 85.5785 403.254 85.7895 402.309H85.7642Z" fill="#4A43EC"/>
<g opacity="0.3">
<path opacity="0.3" d="M85.7642 402.309C87.0196 395.675 89.8893 389.451 94.1198 384.188C102.627 374.06 114.705 375.934 124.993 382.391C125.837 382.906 124.85 384.079 124.04 383.555C118.587 380.129 112.021 377.234 105.472 378.618C100.737 379.622 96.9387 382.838 94.1366 386.628C90.7417 391.382 88.3996 396.806 87.2665 402.537C87.0808 403.482 85.5785 403.254 85.7895 402.309H85.7642Z" fill="black"/>
</g>
<path d="M79.4427 388.839C79.4427 388.839 75.113 378.002 71.7792 381.032C68.4454 384.062 79.4427 388.839 79.4427 388.839Z" fill="#4A43EC"/>
<path d="M79.5862 377.107C79.5862 377.107 81.2742 366.337 76.033 367.03C70.7917 367.722 79.5862 377.107 79.5862 377.107Z" fill="#4A43EC"/>
<path d="M97.6392 362.565C97.6392 362.565 108.214 357.577 104.113 354.53C100.011 351.483 97.6392 362.565 97.6392 362.565Z" fill="#4A43EC"/>
<path d="M81.7217 372.457C81.7217 372.457 92.01 365.249 92.4827 372.457C92.9553 379.665 81.7217 372.457 81.7217 372.457Z" fill="#4A43EC"/>
<path d="M82.9623 398.798C82.9623 398.798 74.5814 390.805 73.5855 395.27C72.5895 399.735 82.9623 398.798 82.9623 398.798Z" fill="#4A43EC"/>
<path d="M84.9961 368.726C84.9961 368.726 95.2845 360.97 89.9504 358.193C84.6163 355.416 84.9961 368.726 84.9961 368.726Z" fill="#4A43EC"/>
<path d="M93.2334 363.975C93.2334 363.975 104.205 364.709 101.175 369.359C98.1455 374.01 93.2334 363.975 93.2334 363.975Z" fill="#4A43EC"/>
<path d="M78.8096 384.02C78.8096 384.02 82.0083 373.833 86.2199 378.55C90.4315 383.268 78.8096 384.02 78.8096 384.02Z" fill="#4A43EC"/>
<g opacity="0.4">
<path opacity="0.4" d="M82.9623 398.798C82.9623 398.798 74.5814 390.805 73.5855 395.27C72.5895 399.735 82.9623 398.798 82.9623 398.798Z" fill="white"/>
<path opacity="0.4" d="M84.9961 368.726C84.9961 368.726 95.2845 360.97 89.9504 358.193C84.6163 355.416 84.9961 368.726 84.9961 368.726Z" fill="white"/>
<path opacity="0.4" d="M93.2339 363.975C93.2339 363.975 104.206 364.709 101.176 369.359C98.146 374.01 93.2339 363.975 93.2339 363.975Z" fill="white"/>
<path opacity="0.4" d="M78.8101 384.02C78.8101 384.02 82.0088 373.833 86.2204 378.55C90.4319 383.268 78.8101 384.02 78.8101 384.02Z" fill="white"/>
</g>
<path d="M81.1392 394.587C81.1392 394.587 81.6793 383.015 87.3341 386.425C92.9889 389.835 81.1392 394.587 81.1392 394.587Z" fill="#4A43EC"/>
<path d="M85.3927 404.748C81.4241 398.998 78.9287 392.361 78.1258 385.42C76.8598 371.79 87.03 364.261 99.2258 361.375C100.196 361.147 100.357 362.7 99.3946 362.919C92.9043 364.447 85.9919 367.182 82.2361 373.047C79.5268 377.267 79.1133 382.331 79.8898 387.218C80.9282 393.179 83.2304 398.848 86.6418 403.845C87.2072 404.689 85.9581 405.6 85.3927 404.765V404.748Z" fill="#4A43EC"/>
<g opacity="0.3">
<path opacity="0.3" d="M85.3927 404.748C81.4241 398.998 78.9287 392.361 78.1258 385.42C76.8598 371.79 87.03 364.261 99.2258 361.375C100.196 361.147 100.357 362.7 99.3946 362.919C92.9043 364.447 85.9919 367.182 82.2361 373.047C79.5268 377.267 79.1133 382.331 79.8898 387.218C80.9282 393.179 83.2304 398.848 86.6418 403.845C87.2072 404.689 85.9581 405.6 85.3927 404.765V404.748Z" fill="black"/>
</g>
<path d="M73.7373 390.982C73.7373 390.982 71.2728 381.546 75.0201 381.926C78.7675 382.306 73.7373 390.982 73.7373 390.982Z" fill="#4A43EC"/>
<path d="M67.8291 383.159C67.8291 383.159 61.364 376.736 65.2127 374.617C69.0613 372.499 67.8291 383.159 67.8291 383.159Z" fill="#4A43EC"/>
<path d="M48.451 382.34C48.451 382.34 38.8631 384.23 40.1123 380.146C41.3614 376.061 48.451 382.34 48.451 382.34Z" fill="#4A43EC"/>
<path d="M64.0733 381.099C64.0733 381.099 53.574 381.352 56.8487 386.45C60.1234 391.548 64.0733 381.099 64.0733 381.099Z" fill="#4A43EC"/>
<path d="M76.3281 399.423C76.3281 399.423 78.0161 389.885 80.8857 392.4C83.7553 394.916 76.3281 399.423 76.3281 399.423Z" fill="#4A43EC"/>
<path d="M60.0224 380.213C60.0224 380.213 49.253 380.103 51.4643 375.58C53.6756 371.056 60.0224 380.213 60.0224 380.213Z" fill="#4A43EC"/>
<path d="M52.1139 381.099C52.1139 381.099 45.1171 387.007 49.4384 388.695C53.7597 390.383 52.1139 381.099 52.1139 381.099Z" fill="#4A43EC"/>
<path d="M71.7706 387.429C71.7706 387.429 64.5629 382.163 64.0734 387.429C63.5838 392.696 71.7706 387.429 71.7706 387.429Z" fill="#4A43EC"/>
<g opacity="0.4">
<path opacity="0.4" d="M76.3281 399.423C76.3281 399.423 78.0161 389.885 80.8857 392.4C83.7553 394.916 76.3281 399.423 76.3281 399.423Z" fill="white"/>
<path opacity="0.4" d="M60.022 380.213C60.022 380.213 49.2525 380.103 51.4638 375.58C53.6751 371.056 60.022 380.213 60.022 380.213Z" fill="white"/>
<path opacity="0.4" d="M52.1139 381.099C52.1139 381.099 45.1171 387.007 49.4384 388.695C53.7597 390.383 52.1139 381.099 52.1139 381.099Z" fill="white"/>
<path opacity="0.4" d="M71.7706 387.43C71.7706 387.43 64.5629 382.163 64.0734 387.43C63.5838 392.696 71.7706 387.43 71.7706 387.43Z" fill="white"/>
</g>
<path d="M75.4506 395.701C75.4506 395.701 69.3484 388.18 67.23 393.278C65.1116 398.376 75.4506 395.701 75.4506 395.701Z" fill="#4A43EC"/>
<path d="M77.6366 404.647C77.4465 398.809 75.8296 393.106 72.927 388.037C67.019 378.23 56.4353 378.213 46.763 382.348C45.995 382.678 46.6533 383.8 47.4129 383.471C52.536 381.277 58.5453 379.681 63.9722 381.783C67.8883 383.277 70.7242 386.509 72.5894 390.155C74.8509 394.677 76.1227 399.629 76.3199 404.681C76.3199 405.525 77.6534 405.525 77.6197 404.681L77.6366 404.647Z" fill="#4A43EC"/>
<g opacity="0.3">
<path opacity="0.3" d="M77.6366 404.647C77.4465 398.809 75.8296 393.106 72.927 388.037C67.019 378.23 56.4353 378.213 46.763 382.348C45.995 382.678 46.6533 383.8 47.4129 383.471C52.536 381.277 58.5453 379.681 63.9722 381.783C67.8883 383.277 70.7242 386.509 72.5894 390.155C74.8509 394.677 76.1227 399.629 76.3199 404.681C76.3199 405.525 77.6534 405.525 77.6197 404.681L77.6366 404.647Z" fill="black"/>
</g>
<path d="M99.7662 399.119L96.4661 423.755C96.2634 425.288 95.5103 426.694 94.3473 427.713C93.1843 428.732 91.6906 429.293 90.1445 429.292H69.8632C68.3172 429.293 66.8235 428.732 65.6605 427.713C64.4974 426.694 63.7444 425.288 63.5417 423.755L60.2754 399.119H99.7662Z" fill="#4A43EC"/>
<path opacity="0.3" d="M99.7662 399.119L96.4661 423.755C96.2634 425.288 95.5103 426.694 94.3473 427.713C93.1843 428.732 91.6906 429.293 90.1445 429.292H69.8632C68.3172 429.293 66.8235 428.732 65.6605 427.713C64.4974 426.694 63.7444 425.288 63.5417 423.755L60.2754 399.119H99.7662Z" fill="white"/>
<path d="M230.859 196.185L226.79 188.824L225.179 178.157L222.027 178.604L217.864 186.307L223.603 192.281L226.626 199.807L230.859 196.185Z" fill="#FFC3BD"/>
<path d="M265.117 196.174C265.095 196.029 265.038 195.892 264.949 195.775C264.861 195.658 264.745 195.566 264.611 195.506C264.477 195.446 264.331 195.421 264.185 195.433C264.039 195.445 263.898 195.494 263.776 195.574C260.248 197.926 249.405 204.982 243.478 204.982C236.328 204.982 229.366 191.682 229.366 191.682L223.862 195.057C223.862 195.057 232.153 216.589 243.537 216.589C254.921 216.589 266.834 207.181 266.834 207.181L265.117 196.174Z" fill="#4A43EC"/>
<path opacity="0.5" d="M265.117 196.174C265.095 196.029 265.038 195.892 264.949 195.775C264.861 195.658 264.745 195.566 264.611 195.506C264.477 195.446 264.331 195.421 264.185 195.433C264.039 195.445 263.898 195.494 263.776 195.574C260.248 197.926 249.405 204.982 243.478 204.982C236.328 204.982 229.366 191.682 229.366 191.682L223.862 195.057C223.862 195.057 232.153 216.589 243.537 216.589C254.921 216.589 266.834 207.181 266.834 207.181L265.117 196.174Z" fill="white"/>
<path d="M222.885 194.822L229.294 190.694L230.859 192.752L223.803 197.103L222.885 194.822Z" fill="#4A43EC"/>
<path opacity="0.1" d="M252.639 214.919C257.692 213.071 262.446 210.491 266.751 207.264L265.363 197.973H263.529L252.639 214.919Z" fill="black"/>
<path d="M254.567 399.894L255.296 420.097H262.658L264.41 400.611L254.567 399.894Z" fill="#FFC3BD"/>
<path d="M294.281 400.575L297.503 420.532L304.806 419.615L304.136 400.082L294.281 400.575Z" fill="#FFC3BD"/>
<path d="M259.236 251.435C259.236 251.435 249.498 302.003 254.473 411.371H264.292C264.292 411.371 270.866 358.722 270.173 338.024C270.173 337.506 270.172 337.013 270.114 336.542C269.834 332.195 270.23 327.831 271.29 323.606L271.36 323.359L282.65 280.223C282.65 280.223 302.125 274.214 293.798 251.423L259.236 251.435Z" fill="#4A43EC"/>
<path opacity="0.1" d="M280.252 275.672L276.018 264.488C274.119 279.661 273.725 294.985 274.842 310.235L282.216 282.093L280.252 275.672Z" fill="black"/>
<path d="M253.414 408.678L253.579 413.559L264.751 414.1L265.68 409.043L253.414 408.678Z" fill="#263238"/>
<path d="M274.501 251.435C274.501 251.435 273.713 306.26 295.81 413.524L305.512 411.983C305.512 411.983 303.724 362.591 300.208 340.917C300.036 339.858 299.859 338.871 299.679 337.953C298.565 332.459 298.064 326.859 298.185 321.254V321.042C298.515 308.459 299.255 288.443 300.667 279.953C301.843 273.179 301.949 267.017 299.491 252.575L274.501 251.435Z" fill="#4A43EC"/>
<path d="M294.352 410.254L295.398 415.017L306.476 413.523V408.384L294.352 410.254Z" fill="#263238"/>
<path d="M330.031 224.468L337.981 223.681L341.379 220.94L349.317 222.022V224.857L347.048 229.443L338.427 228.032L329.478 229.725L330.031 224.468Z" fill="#FFC3BD"/>
<path d="M278.816 159.177C278.816 159.177 270.078 158.295 273.336 168.408L280.027 160.717L278.816 159.177Z" fill="#263238"/>
<path opacity="0.3" d="M278.816 159.177C278.816 159.177 270.078 158.295 273.336 168.408L280.027 160.717L278.816 159.177Z" fill="white"/>
<path d="M288.343 178.628C287.543 183.12 286.814 190.894 289.119 194.939C289.396 195.408 289.502 195.959 289.418 196.497C289.335 197.036 289.067 197.528 288.66 197.891C285.804 200.759 281.988 202.468 277.947 202.689C272.772 202.971 272.361 200.196 273.337 197.985C273.468 197.696 273.657 197.436 273.891 197.222C274.126 197.008 274.401 196.843 274.701 196.738C279.558 195.068 279.817 190.776 278.817 187.036L288.343 178.628Z" fill="#FFC3BD"/>
<path opacity="0.2" d="M284.461 182.085L278.816 187.048C279.042 187.967 279.191 188.903 279.263 189.847C281.427 189.494 290.341 184.92 284.461 182.085Z" fill="black"/>
<path d="M291.364 171.972C289.894 178.698 289.365 182.709 285.402 185.649C279.428 190.094 271.525 185.649 270.972 178.593C270.467 172.23 272.96 162.328 280.027 160.658C281.583 160.29 283.207 160.325 284.746 160.759C286.284 161.192 287.687 162.011 288.821 163.137C289.956 164.263 290.785 165.66 291.23 167.196C291.675 168.731 291.721 170.355 291.364 171.913V171.972Z" fill="#FFC3BD"/>
<path d="M280.44 172.278C280.346 172.83 279.993 173.242 279.628 173.183C279.264 173.124 279.04 172.63 279.134 172.078C279.228 171.525 279.581 171.125 279.946 171.184C280.31 171.243 280.522 171.725 280.44 172.278Z" fill="#263238"/>
<path d="M274.196 171.301C274.101 171.854 273.749 172.254 273.384 172.195C273.02 172.136 272.796 171.654 272.89 171.102C272.984 170.549 273.337 170.137 273.702 170.196C274.066 170.255 274.278 170.749 274.196 171.301Z" fill="#263238"/>
<path d="M276.476 171.877C275.557 173.466 274.416 174.915 273.089 176.182C273.427 176.511 273.832 176.763 274.276 176.921C274.721 177.08 275.194 177.14 275.664 177.099L276.476 171.877Z" fill="#ED847E"/>
<path d="M282.992 170.008C283.046 170.025 283.103 170.025 283.157 170.008C283.231 169.963 283.285 169.893 283.309 169.81C283.334 169.727 283.325 169.638 283.286 169.561C283.047 169.097 282.702 168.697 282.279 168.393C281.856 168.088 281.367 167.888 280.852 167.809C280.764 167.809 280.681 167.843 280.619 167.905C280.557 167.967 280.522 168.051 280.522 168.138C280.522 168.225 280.557 168.309 280.619 168.371C280.681 168.432 280.764 168.467 280.852 168.467C281.258 168.535 281.643 168.699 281.974 168.944C282.305 169.189 282.573 169.509 282.757 169.878C282.784 169.916 282.82 169.947 282.86 169.969C282.901 169.991 282.946 170.005 282.992 170.008Z" fill="#263238"/>
<path d="M272.161 168.408C272.214 168.409 272.267 168.397 272.314 168.372C272.361 168.348 272.402 168.312 272.431 168.267C272.655 167.924 272.958 167.638 273.313 167.434C273.669 167.229 274.068 167.112 274.478 167.091C274.52 167.093 274.563 167.086 274.603 167.07C274.643 167.055 274.679 167.032 274.71 167.002C274.741 166.973 274.765 166.937 274.782 166.898C274.798 166.859 274.807 166.816 274.807 166.774C274.808 166.73 274.802 166.687 274.786 166.647C274.771 166.606 274.748 166.569 274.719 166.537C274.689 166.506 274.654 166.48 274.615 166.462C274.575 166.444 274.533 166.434 274.489 166.433C273.968 166.455 273.458 166.599 273.003 166.855C272.547 167.11 272.158 167.469 271.867 167.903C271.842 167.937 271.825 167.976 271.816 168.018C271.807 168.059 271.806 168.102 271.814 168.143C271.822 168.185 271.837 168.225 271.861 168.26C271.884 168.296 271.914 168.326 271.949 168.35C272.013 168.388 272.086 168.408 272.161 168.408Z" fill="#263238"/>
<path d="M274.677 179.322C276.898 179.069 279.137 179.01 281.369 179.145C280.71 180.462 279.581 181.497 277.053 181.438C274.524 181.38 274.677 179.322 274.677 179.322Z" fill="#263238"/>
<path d="M278.287 180.416C277.323 180.335 276.357 180.531 275.5 180.98C275.96 181.283 276.502 181.439 277.052 181.427C278.012 181.508 278.976 181.312 279.828 180.862C279.37 180.564 278.834 180.409 278.287 180.416Z" fill="#FF5652"/>
<path d="M274.9 179.286C274.945 179.459 275.036 179.615 275.165 179.738C275.294 179.86 275.455 179.944 275.629 179.98C277.091 180.017 278.553 179.943 280.004 179.757C280.236 179.756 280.464 179.698 280.668 179.59C280.873 179.481 281.049 179.325 281.18 179.134C279.085 179.042 276.987 179.093 274.9 179.286Z" fill="white"/>
<path d="M289.953 163.058C289.953 163.058 285.52 165.151 287.155 169.349C288.789 173.548 286.79 176.111 286.79 176.111L289.953 176.582C289.953 176.582 297.01 171.654 295.387 164.692L289.953 163.058Z" fill="#263238"/>
<path opacity="0.3" d="M289.953 163.058C289.953 163.058 285.52 165.151 287.155 169.349C288.789 173.548 286.79 176.111 286.79 176.111L289.953 176.582C289.953 176.582 297.01 171.654 295.387 164.692L289.953 163.058Z" fill="white"/>
<path d="M293.694 178.816C293.131 179.462 292.447 179.991 291.68 180.372C290.914 180.753 290.079 180.98 289.225 181.039C286.932 181.18 286.261 179.016 287.308 177.111C288.237 175.394 290.554 173.242 292.659 174.006C293.119 174.177 293.528 174.46 293.849 174.831C294.17 175.202 294.393 175.648 294.496 176.127C294.599 176.606 294.579 177.104 294.439 177.574C294.299 178.044 294.043 178.471 293.694 178.816Z" fill="#FFC3BD"/>
<path d="M294.963 165.868C297.315 164.692 299.314 158.742 290.082 156.578C278.651 153.885 274.794 148.346 274.794 148.346C274.794 148.346 274.312 153.626 277.675 155.649C277.675 155.649 273.101 153.085 271.384 157.283C271.384 157.283 274.218 156.425 277.675 161.164C282.238 167.385 290.941 167.867 294.963 165.868Z" fill="#263238"/>
<path d="M278.982 161.505C278.982 161.505 271.808 155.755 271.373 163.469C271.373 163.469 273.643 161.611 278.982 161.505Z" fill="#263238"/>
<path d="M300.619 197.35C300.729 197.234 300.866 197.148 301.018 197.1C301.17 197.053 301.332 197.045 301.488 197.078C301.644 197.111 301.789 197.184 301.909 197.289C302.028 197.394 302.119 197.529 302.172 197.679C303.607 201.642 309.769 216.26 314.249 219.517C319.73 223.504 334.924 223.163 334.924 223.163L335.241 229.596C335.241 229.596 317.189 234.041 308.452 227.691C299.714 221.34 293.293 204.794 293.293 204.794L300.619 197.35Z" fill="#4A43EC"/>
<path opacity="0.5" d="M300.619 197.35C300.729 197.234 300.866 197.148 301.018 197.1C301.17 197.053 301.332 197.045 301.488 197.078C301.644 197.111 301.789 197.184 301.909 197.289C302.028 197.394 302.119 197.529 302.172 197.679C303.607 201.642 309.769 216.26 314.249 219.517C319.73 223.504 334.924 223.163 334.924 223.163L335.241 229.596C335.241 229.596 317.189 234.041 308.452 227.691C299.714 221.34 293.293 204.794 293.293 204.794L300.619 197.35Z" fill="white"/>
<path opacity="0.1" d="M295.41 207.64V209.463C297.762 214.449 302.043 222.199 307.253 226.656L300.926 200.69L295.41 207.64Z" fill="black"/>
<path d="M333.971 222.399L334.395 230.549L336.511 230.019L336.147 222.399H333.971Z" fill="#4A43EC"/>
<path d="M299.149 195.657C296.021 195.174 291.329 194.539 286.084 194.104L281.462 196.456L279.345 193.728C275.153 193.533 270.953 193.623 266.774 193.998C265.729 194.107 264.747 194.552 263.977 195.267C263.207 195.982 262.69 196.928 262.505 197.962C260.894 206.876 255.943 233.806 258.095 256.856C258.095 256.856 269.596 259.337 274.559 256.021C274.559 256.021 289.412 261.078 300.596 256.727L302.948 200.372C303.022 199.253 302.673 198.147 301.969 197.273C301.265 196.399 300.259 195.822 299.149 195.657Z" fill="#4A43EC"/>
<path opacity="0.5" d="M299.149 195.657C296.021 195.174 291.329 194.539 286.084 194.104L281.462 196.456L279.345 193.728C275.153 193.533 270.953 193.623 266.774 193.998C265.729 194.107 264.747 194.552 263.977 195.267C263.207 195.982 262.69 196.928 262.505 197.962C260.894 206.876 255.943 233.806 258.095 256.856C258.095 256.856 269.596 259.337 274.559 256.021C274.559 256.021 289.412 261.078 300.596 256.727L302.948 200.372C303.022 199.253 302.673 198.147 301.969 197.273C301.265 196.399 300.259 195.822 299.149 195.657Z" fill="white"/>
<path d="M279.758 192.516L281.733 195.386L288.248 191.858C288.66 191.641 289.131 191.563 289.591 191.635C290.05 191.707 290.475 191.926 290.8 192.258L293.282 194.821L286.861 202.054C286.793 202.136 286.701 202.196 286.599 202.224C286.496 202.253 286.387 202.249 286.286 202.212C286.186 202.176 286.099 202.11 286.037 202.023C285.976 201.936 285.943 201.831 285.943 201.725C285.943 199.655 285.32 196.15 281.733 196.891C281.733 196.891 278.311 194.798 276.3 199.243C276.25 199.345 276.168 199.428 276.067 199.48C275.966 199.532 275.851 199.55 275.739 199.532C275.627 199.513 275.524 199.459 275.445 199.378C275.366 199.296 275.315 199.191 275.301 199.079L274.654 193.587L276.688 192.023C276.92 191.847 277.185 191.721 277.467 191.651C277.748 191.58 278.042 191.568 278.328 191.614C278.615 191.66 278.89 191.764 279.135 191.919C279.381 192.074 279.593 192.277 279.758 192.516Z" fill="#4A43EC"/>
<path d="M281.71 199.138C281.71 199.324 281.655 199.506 281.552 199.66C281.448 199.815 281.301 199.936 281.129 200.007C280.957 200.078 280.768 200.097 280.586 200.06C280.403 200.024 280.236 199.934 280.104 199.803C279.973 199.671 279.883 199.504 279.847 199.321C279.81 199.139 279.829 198.949 279.9 198.778C279.971 198.606 280.092 198.459 280.247 198.355C280.401 198.252 280.583 198.197 280.769 198.197C280.893 198.197 281.015 198.221 281.129 198.268C281.244 198.316 281.347 198.385 281.435 198.472C281.522 198.56 281.591 198.663 281.639 198.778C281.686 198.892 281.71 199.014 281.71 199.138Z" fill="#263238"/>
<path d="M278.582 214.084C278.582 214.27 278.527 214.452 278.423 214.607C278.32 214.762 278.173 214.882 278.001 214.954C277.829 215.025 277.64 215.043 277.457 215.007C277.275 214.971 277.107 214.881 276.976 214.75C276.844 214.618 276.755 214.45 276.718 214.268C276.682 214.085 276.701 213.896 276.772 213.724C276.843 213.552 276.964 213.405 277.118 213.302C277.273 213.199 277.455 213.144 277.641 213.144C277.891 213.144 278.13 213.243 278.306 213.419C278.483 213.596 278.582 213.835 278.582 214.084Z" fill="#263238"/>
<path d="M276.558 230.748C276.558 230.998 276.459 231.237 276.283 231.414C276.106 231.59 275.867 231.689 275.618 231.689C275.368 231.689 275.129 231.59 274.952 231.414C274.776 231.237 274.677 230.998 274.677 230.748C274.677 230.499 274.776 230.26 274.952 230.083C275.129 229.907 275.368 229.808 275.618 229.808C275.867 229.808 276.106 229.907 276.283 230.083C276.459 230.26 276.558 230.499 276.558 230.748Z" fill="#263238"/>
<path d="M274.678 248.212C275.197 248.212 275.618 247.791 275.618 247.271C275.618 246.752 275.197 246.331 274.678 246.331C274.158 246.331 273.737 246.752 273.737 247.271C273.737 247.791 274.158 248.212 274.678 248.212Z" fill="#263238"/>
<path d="M255.272 417.851H263.504C263.679 417.853 263.848 417.915 263.983 418.026C264.118 418.137 264.21 418.291 264.245 418.463L267.08 426.389C267.149 426.718 267.086 427.061 266.903 427.343C266.72 427.626 266.432 427.824 266.103 427.894H265.833C262.411 427.777 259.365 427.53 255.108 427.471C250.074 427.389 251.345 428 245.429 427.988C241.901 427.988 241.29 423.919 242.795 423.743C249.722 422.99 250.474 420.921 253.191 418.486C253.784 418.028 254.524 417.803 255.272 417.851Z" fill="#263238"/>
<path d="M297.162 417.851H305.394C305.569 417.853 305.738 417.915 305.873 418.026C306.007 418.137 306.1 418.291 306.135 418.463L308.969 426.389C309.039 426.718 308.975 427.061 308.792 427.343C308.609 427.626 308.322 427.824 307.993 427.894C307.903 427.906 307.812 427.906 307.723 427.894C304.3 427.777 301.255 427.53 296.997 427.471C291.976 427.389 293.234 428 287.319 427.988C283.791 427.988 283.179 423.919 284.685 423.743C291.623 422.99 292.376 420.921 295.081 418.486C295.674 418.028 296.414 417.803 297.162 417.851Z" fill="#263238"/>
<path d="M275.501 182.556C276.175 182.991 276.961 183.223 277.764 183.223C278.567 183.223 279.353 182.991 280.028 182.556C280.028 182.556 279.817 185.66 278.982 185.966C278.711 186.06 278.017 185.355 278.017 185.355C278.017 185.355 277.559 186.895 277.123 186.872C276.688 186.848 276.312 185.131 276.312 185.131C276.312 185.131 275.771 186.072 275.501 185.966C274.713 185.649 275.501 182.556 275.501 182.556Z" fill="#263238"/>
<path opacity="0.5" d="M275.501 182.556C276.175 182.991 276.961 183.223 277.764 183.223C278.567 183.223 279.353 182.991 280.028 182.556C280.028 182.556 279.817 185.66 278.982 185.966C278.711 186.06 278.017 185.355 278.017 185.355C278.017 185.355 277.559 186.895 277.123 186.872C276.688 186.848 276.312 185.131 276.312 185.131C276.312 185.131 275.771 186.072 275.501 185.966C274.713 185.649 275.501 182.556 275.501 182.556Z" fill="white"/>
<path d="M295.787 314.233L293.646 420.732H301.22C301.22 420.732 315.673 352.053 311.639 329.674L324.07 286.432L298.574 289.266L295.787 314.233Z" fill="#FFB573"/>
<path d="M325.281 316.138L337.383 421.049H344.791C344.791 421.049 349.731 351.218 342.969 329.509L343.521 286.056L321.354 289.266L325.281 316.138Z" fill="#FFB573"/>
<path d="M294.304 418.498H302.031C302.192 418.5 302.347 418.557 302.471 418.66C302.595 418.762 302.681 418.904 302.713 419.062L305.371 426.495C305.405 426.648 305.408 426.806 305.381 426.96C305.353 427.115 305.295 427.262 305.209 427.393C305.124 427.525 305.013 427.638 304.883 427.726C304.753 427.814 304.607 427.875 304.453 427.906C304.371 427.917 304.288 427.917 304.206 427.906C300.996 427.8 298.15 427.576 294.152 427.506C289.448 427.435 290.624 428.012 285.085 428C281.745 428 281.204 424.178 282.615 424.025C289.106 423.319 289.812 421.367 292.352 419.097C292.907 418.664 293.602 418.45 294.304 418.498Z" fill="#4A43EC"/>
<path d="M337.604 418.498H345.331C345.493 418.499 345.65 418.556 345.777 418.659C345.903 418.761 345.99 418.904 346.025 419.062L348.671 426.495C348.705 426.648 348.709 426.806 348.681 426.96C348.653 427.115 348.595 427.262 348.509 427.393C348.424 427.525 348.313 427.638 348.183 427.726C348.053 427.814 347.907 427.875 347.753 427.906C347.671 427.917 347.588 427.917 347.506 427.906C344.296 427.8 341.45 427.577 337.463 427.506C332.759 427.435 333.935 428.012 328.385 428C325.057 428 324.504 424.178 325.927 424.025C332.418 423.319 333.124 421.367 335.664 419.098C336.214 418.664 336.906 418.45 337.604 418.498Z" fill="#4A43EC"/>
<path d="M300.138 252.904C295.022 280.359 292.92 308.29 293.87 336.201C311.72 336.86 329.595 336.341 347.378 334.649C345.341 325.471 344.715 316.037 345.52 306.671C347.225 289.443 343.65 269.039 333.078 252.904H300.138Z" fill="#4A43EC"/>
<path opacity="0.5" d="M300.138 252.904C295.022 280.359 292.92 308.29 293.87 336.201C311.72 336.86 329.595 336.341 347.378 334.649C345.341 325.471 344.715 316.037 345.52 306.671C347.225 289.443 343.65 269.039 333.078 252.904H300.138Z" fill="white"/>
<path d="M303.442 206.287C303.442 206.287 296.668 210.744 294.304 227.032C291.435 246.848 300.866 240.062 300.866 240.062L303.442 206.287Z" fill="#FFB573"/>
<path d="M333.23 171.007C336.758 173.171 337.546 178.134 337.782 181.109C338.017 184.084 335.065 181.109 337.429 186.178C339.793 191.246 341.321 195.797 333.43 195.115C327.011 194.473 320.528 195.243 314.438 197.373C309.393 199.137 305.747 196.856 308.558 190.505C311.369 184.155 307.382 180.121 305.453 178.11C303.525 176.099 301.549 168.702 307.676 166.48C313.803 164.257 307.97 161.493 315.449 160.599C322.929 159.706 337.77 162.622 333.23 171.007Z" fill="#263238"/>
<path d="M316.214 200.983L325.21 200.725C324.364 196.797 325.41 191.187 326.328 187.789L317.143 194.645C317.566 196.95 317.625 199.325 316.214 200.983Z" fill="#FFB573"/>
<path opacity="0.2" d="M324.116 190.752L317.131 194.704C317.298 195.545 317.388 196.399 317.401 197.256C319.365 197.056 323.552 196.609 324.116 190.752Z" fill="black"/>
<path d="M330.654 178.005C329.478 185.59 329.219 188.824 325.033 192.399C318.729 197.785 309.662 194.751 308.498 186.989C307.451 179.992 309.462 168.773 317.177 166.374C318.878 165.835 320.689 165.741 322.437 166.1C324.185 166.459 325.812 167.26 327.163 168.426C328.514 169.592 329.544 171.084 330.155 172.761C330.766 174.438 330.938 176.243 330.654 178.005Z" fill="#FFB573"/>
<path d="M331.937 184.19C331.668 184.872 331.267 185.495 330.756 186.022C330.245 186.549 329.636 186.969 328.962 187.259C327.151 188.024 325.998 186.471 326.292 184.625C326.551 182.979 327.809 180.58 329.738 180.591C330.155 180.606 330.563 180.725 330.923 180.935C331.284 181.146 331.587 181.443 331.805 181.8C332.022 182.156 332.148 182.561 332.172 182.978C332.195 183.395 332.114 183.812 331.937 184.19Z" fill="#FFB573"/>
<path d="M325.622 163.563C327.186 165.692 324.352 170.243 317.39 170.619C312.145 170.878 306.218 177.193 306.088 171.078C305.888 165.503 318.695 161.446 325.622 163.563Z" fill="#263238"/>
<path d="M321.963 165.645C318.659 168.796 321.611 173.571 323.586 175.652C325.562 177.734 328.478 179.557 326.773 183.144C325.068 186.73 324.656 196.08 331.089 193.728C337.522 191.376 336.028 180.392 333.547 175.511C331.066 170.631 325.903 161.893 321.963 165.645Z" fill="#263238"/>
<path d="M313.672 179.757C312.999 181.126 312.14 182.396 311.121 183.532C311.416 183.787 311.764 183.975 312.14 184.08C312.516 184.186 312.911 184.208 313.296 184.143L313.672 179.757Z" fill="#ED893E"/>
<path d="M322.011 176.299C322.061 176.311 322.113 176.311 322.163 176.299C322.224 176.249 322.264 176.177 322.275 176.099C322.286 176.021 322.267 175.941 322.222 175.876C321.889 175.412 321.449 175.036 320.939 174.78C320.429 174.524 319.865 174.396 319.294 174.406C319.215 174.415 319.142 174.454 319.092 174.516C319.041 174.577 319.017 174.656 319.024 174.735C319.03 174.814 319.066 174.888 319.125 174.94C319.184 174.993 319.262 175.021 319.341 175.017C319.812 175.018 320.276 175.13 320.695 175.344C321.114 175.559 321.476 175.87 321.752 176.252C321.788 176.28 321.831 176.298 321.876 176.306C321.921 176.314 321.967 176.312 322.011 176.299Z" fill="#263238"/>
<path d="M308.84 175.276H308.993C309.367 174.992 309.803 174.801 310.265 174.719C310.728 174.637 311.203 174.667 311.651 174.806C311.726 174.834 311.809 174.832 311.883 174.802C311.958 174.771 312.017 174.714 312.051 174.641C312.077 174.565 312.072 174.481 312.037 174.408C312.002 174.335 311.939 174.28 311.863 174.253C311.32 174.08 310.744 174.037 310.182 174.129C309.62 174.221 309.088 174.445 308.629 174.782C308.562 174.827 308.516 174.897 308.5 174.977C308.485 175.056 308.501 175.138 308.546 175.205C308.576 175.255 308.62 175.295 308.672 175.32C308.724 175.346 308.783 175.355 308.84 175.347V175.276Z" fill="#263238"/>
<path d="M318.142 179.11C318.142 179.721 317.718 180.192 317.307 180.168C316.895 180.145 316.613 179.604 316.672 178.992C316.731 178.381 317.107 177.899 317.507 177.934C317.907 177.969 318.189 178.487 318.142 179.11Z" fill="#263238"/>
<path d="M311.121 178.51C311.121 179.121 310.698 179.592 310.298 179.557C309.898 179.521 309.604 179.004 309.663 178.381C309.722 177.757 310.086 177.287 310.486 177.322C310.886 177.357 311.18 177.875 311.121 178.51Z" fill="#263238"/>
<path d="M310.663 177.369L309.205 176.816C309.205 176.816 309.875 178.039 310.663 177.369Z" fill="#263238"/>
<path d="M317.684 177.969L316.214 177.417C316.214 177.417 316.896 178.64 317.684 177.969Z" fill="#263238"/>
<path d="M299.079 254.774C299.079 254.774 298.444 246.283 298.691 234.782C298.691 232.994 297.879 231.054 297.879 226.926C297.879 222.798 299.055 218.294 299.232 216.554C299.867 209.192 301.113 208.028 303.442 206.346C311.004 200.842 333.9 200.889 336.37 206.346C340.18 214.696 332.63 235.558 335.112 254.833C335.123 254.774 317.095 259.125 299.079 254.774Z" fill="#263238"/>
<path opacity="0.5" d="M336.723 207.275H332.737C332.737 207.275 330.032 212.062 335.442 233.089C336.641 222.234 338.487 212.697 336.723 207.275Z" fill="black"/>
<path d="M315.989 197.961C319.408 198.356 322.869 198.185 326.232 197.455C326.392 197.415 326.56 197.415 326.72 197.455C326.881 197.495 327.029 197.573 327.152 197.684C327.275 197.794 327.369 197.932 327.426 198.087C327.483 198.242 327.501 198.409 327.479 198.572C327.267 200.137 327.279 202.359 328.961 202.724C326.327 204.313 323.326 205.193 320.251 205.277C317.176 205.362 314.132 204.648 311.415 203.206C311.415 203.206 315.248 202.524 314.943 199.137C314.92 198.988 314.93 198.837 314.973 198.693C315.016 198.548 315.09 198.416 315.19 198.303C315.29 198.191 315.413 198.102 315.551 198.043C315.69 197.984 315.839 197.956 315.989 197.961Z" fill="#263238"/>
<path d="M299.008 233.512C303.359 230.713 307.24 228.619 307.24 228.619L310.427 222.198C310.542 221.962 310.726 221.766 310.955 221.636C311.184 221.505 311.446 221.448 311.709 221.469L313.837 221.658C314.171 221.69 314.479 221.85 314.698 222.104C314.917 222.358 315.03 222.687 315.013 223.022L314.649 230.83C314.624 231.108 314.514 231.37 314.332 231.581C314.151 231.792 313.908 231.941 313.637 232.006L309.098 233.088C309.098 233.088 299.09 243.861 296.679 242.108C293.057 239.533 295.797 235.581 299.008 233.512Z" fill="#FFB573"/>
<path opacity="0.1" d="M317.848 289.266L316.531 336.4C319.518 336.342 322.705 336.248 326.056 336.118L317.848 289.266Z" fill="black"/>
<path d="M333.854 205.793C336.794 204.029 342.721 208.698 345.191 226.491C347.437 242.755 342.945 244.931 336.477 240.368C332.147 237.341 327.643 234.573 322.988 232.077L318.119 231.148L314.65 230.878C314.165 230.837 313.712 230.619 313.378 230.266C313.044 229.912 312.852 229.447 312.839 228.961L312.686 223.081C312.68 222.805 312.732 222.531 312.839 222.277C312.945 222.022 313.104 221.793 313.304 221.603C313.505 221.414 313.743 221.269 314.003 221.177C314.263 221.085 314.54 221.048 314.815 221.07L318.119 221.317L323.682 227.103L338.558 232.489C338.558 232.489 337.676 223.669 335.489 219.341C333.16 214.766 331.09 207.416 333.854 205.793Z" fill="#FFB573"/>
<path opacity="0.1" d="M313.861 221.658L312.179 221.505C311.95 221.73 311.769 221.999 311.648 222.296C311.526 222.594 311.467 222.913 311.474 223.234L311.65 230.29C311.661 230.692 311.774 231.085 311.98 231.431C312.186 231.777 312.477 232.064 312.826 232.265L313.649 232.065C313.92 232 314.163 231.851 314.344 231.64C314.526 231.429 314.636 231.167 314.661 230.889L315.025 223.081C315.058 222.738 314.954 222.396 314.736 222.13C314.518 221.863 314.203 221.693 313.861 221.658Z" fill="black"/>
<path d="M333.854 205.793C336.794 204.029 342.721 208.698 345.191 226.491C347.437 242.755 342.945 244.931 336.477 240.368C332.147 237.341 327.643 234.573 322.988 232.077L318.119 231.148L314.65 230.878C314.165 230.837 313.712 230.619 313.378 230.266C313.044 229.912 312.852 229.447 312.839 228.961L312.686 223.081C312.68 222.805 312.732 222.531 312.839 222.277C312.945 222.022 313.104 221.793 313.304 221.603C313.505 221.414 313.743 221.269 314.003 221.177C314.263 221.085 314.54 221.048 314.815 221.07L318.119 221.317L323.682 227.103L338.558 232.489C338.558 232.489 337.676 223.669 335.489 219.341C333.16 214.766 331.09 207.416 333.854 205.793Z" fill="#FFB573"/>
<path d="M322.199 168.832C322.199 168.832 317.495 174.712 313.756 173.23C310.016 171.748 315.825 173.065 322.199 168.832Z" fill="#263238"/>
<path d="M314.766 187.765C314.408 187.764 314.05 187.732 313.696 187.671C313.648 187.663 313.606 187.636 313.577 187.596C313.549 187.557 313.537 187.508 313.543 187.46C313.552 187.412 313.579 187.369 313.618 187.34C313.658 187.312 313.707 187.3 313.755 187.307C314.531 187.467 315.334 187.445 316.099 187.24C316.865 187.036 317.572 186.656 318.165 186.131C318.2 186.098 318.246 186.079 318.294 186.079C318.343 186.079 318.389 186.098 318.424 186.131C318.442 186.148 318.456 186.169 318.466 186.192C318.476 186.216 318.481 186.241 318.481 186.266C318.481 186.291 318.476 186.316 318.466 186.339C318.456 186.363 318.442 186.384 318.424 186.401C317.422 187.304 316.115 187.792 314.766 187.765Z" fill="#263238"/>
<path opacity="0.6" d="M314.273 203.641C318.269 204.703 322.497 204.485 326.363 203.018C326.363 203.018 315.967 209.439 314.273 203.641Z" fill="black"/>
<path d="M197.643 446.108C288.021 446.108 361.286 441.831 361.286 436.554C361.286 431.278 288.021 427 197.643 427C107.266 427 34 431.278 34 436.554C34 441.831 107.266 446.108 197.643 446.108Z" fill="#F5F5F5"/>
</g>
<defs>
<clipPath id="clip0_416_8114">
<rect width="422" height="446" fill="white" transform="translate(-23)"/>
</clipPath>
</defs>
</svg>
