<svg width="319" height="333" viewBox="0 0 319 333" fill="none" xmlns="http://www.w3.org/2000/svg">
<path d="M41.6084 250.803H82.6707V326.207H41.6084V250.803Z" fill="#4A43EB"/>
<path d="M104.851 235.516H145.913V326.209H104.851V235.516Z" fill="#4A43EB"/>
<path d="M168.095 198.381H209.157V326.209H168.095V198.381Z" fill="#4A43EB"/>
<path d="M231.338 146.041H272.4V326.207H231.338V146.041Z" fill="#4A43EB"/>
<path d="M318.353 325.417L305.991 319.613C305.886 319.551 305.77 319.511 305.649 319.496C305.529 319.482 305.406 319.492 305.29 319.528C305.174 319.563 305.066 319.623 304.974 319.702C304.882 319.782 304.808 319.88 304.756 319.989C304.704 320.099 304.675 320.219 304.672 320.341C304.67 320.462 304.692 320.583 304.739 320.695C304.785 320.808 304.855 320.909 304.943 320.993C305.031 321.077 305.135 321.141 305.25 321.182L314.077 325.326H283.867L282.511 171.515C282.511 171.278 283.105 172.981 273.271 146.236V146.046C273.271 145.814 273.179 145.593 273.015 145.429C272.852 145.266 272.63 145.174 272.399 145.174H231.337C231.105 145.174 230.884 145.266 230.72 145.429C230.557 145.593 230.465 145.814 230.465 146.046V325.337H220.745C219.759 245.395 219.351 216.137 219.302 216.052C209.6 197.387 209.926 197.69 209.385 197.544C209.211 197.495 212.154 197.512 168.093 197.512C167.862 197.512 167.64 197.604 167.477 197.768C167.313 197.931 167.221 198.153 167.221 198.384V325.337H157.622C156.628 268.249 156.193 247.93 156.114 247.82L146.747 235.003C146.655 234.878 146.531 234.779 146.389 234.718C146.246 234.657 146.09 234.635 145.936 234.654H104.849C104.618 234.654 104.396 234.746 104.233 234.909C104.07 235.073 103.978 235.294 103.978 235.526V325.342H94.1641L92.8287 261.41C92.8238 261.205 92.7466 261.008 92.6107 260.854L83.4683 250.451C83.3695 250.248 83.2041 250.085 82.9997 249.99C82.7953 249.895 82.5643 249.873 82.3456 249.928H41.6058C41.3746 249.928 41.1529 250.02 40.9894 250.183C40.826 250.347 40.7341 250.568 40.7341 250.799V325.33H9.20995L18.0368 321.186C18.1512 321.145 18.2559 321.08 18.3439 320.996C18.4319 320.912 18.5014 320.811 18.548 320.699C18.5945 320.586 18.617 320.466 18.6141 320.344C18.6111 320.222 18.5828 320.103 18.5309 319.993C18.4789 319.883 18.4046 319.785 18.3126 319.706C18.2206 319.626 18.113 319.567 17.9967 319.531C17.8804 319.496 17.7579 319.485 17.6372 319.5C17.5165 319.515 17.4002 319.554 17.2958 319.617L4.93339 325.42C4.78315 325.491 4.65606 325.602 4.56701 325.742C4.47796 325.882 4.43066 326.044 4.43066 326.21C4.43066 326.376 4.47796 326.538 4.56701 326.678C4.65606 326.818 4.78315 326.93 4.93339 327C18.83 333.451 17.8032 332.992 18.0856 332.992C18.2845 332.993 18.4777 332.925 18.633 332.801C18.7883 332.677 18.8964 332.503 18.9394 332.309C18.9823 332.114 18.9576 331.911 18.8692 331.733C18.7808 331.555 18.6341 331.412 18.4535 331.329L9.264 327.08H314.01L304.823 331.329C304.613 331.426 304.45 331.602 304.37 331.82C304.29 332.037 304.3 332.277 304.397 332.486C304.494 332.696 304.671 332.859 304.888 332.939C305.105 333.019 305.345 333.009 305.555 332.912L318.341 327C318.493 326.931 318.622 326.821 318.712 326.681C318.803 326.542 318.852 326.379 318.854 326.212C318.855 326.046 318.808 325.882 318.72 325.741C318.631 325.601 318.504 325.488 318.353 325.417ZM232.208 146.914H271.468V325.333H232.208V146.914ZM168.965 199.252H208.284V325.333H168.965V199.252ZM105.721 236.387H145.042V325.332H105.721V236.387ZM42.4775 251.673H81.7563V325.332H42.4775V251.673Z" fill="#7878FA"/>
<path fill-rule="evenodd" clip-rule="evenodd" d="M1.67578 236.12C3.03389 236.164 199.846 191.568 277.639 71.9127L295.915 81.416L290.529 13.5332L226.339 49.5431L248.862 59.1092C248.862 59.1092 174.694 179.812 1.67578 236.12Z" fill="#FF7262"/>
<path d="M1.40744 235.292C71.25 212.794 135.412 175.483 189.51 125.909C225.424 92.6413 244.23 64.6893 247.579 59.5114L226.001 50.3464C225.849 50.2836 225.718 50.1792 225.623 50.0453C225.528 49.9113 225.473 49.7533 225.464 49.5893C225.455 49.4253 225.492 49.2621 225.572 49.1184C225.651 48.9748 225.77 48.8565 225.914 48.7773L290.101 12.7674C290.229 12.6957 290.373 12.6575 290.519 12.6563C290.666 12.6551 290.811 12.6909 290.94 12.7604C291.069 12.8299 291.178 12.931 291.258 13.0541C291.338 13.1772 291.385 13.3185 291.396 13.4648L296.786 81.3388C296.799 81.494 296.77 81.6498 296.702 81.7899C296.634 81.93 296.53 82.0493 296.4 82.1354C296.27 82.2215 296.12 82.2713 295.964 82.2797C295.809 82.288 295.654 82.2545 295.516 82.1826L277.94 73.0489C201.269 190.05 10.8776 235.314 1.95661 236.948C1.84786 236.984 1.73307 236.998 1.6188 236.99C1.50453 236.981 1.39301 236.951 1.29062 236.899C1.18822 236.848 1.09695 236.777 1.02202 236.69C0.947092 236.604 0.889966 236.503 0.853907 236.394C0.817848 236.285 0.803562 236.171 0.811864 236.056C0.820166 235.942 0.850895 235.831 0.902295 235.728C0.953695 235.626 1.02476 235.535 1.11143 235.46C1.19811 235.385 1.29869 235.328 1.40744 235.292ZM228.316 49.4346L249.209 58.3085C249.325 58.3576 249.428 58.4311 249.512 58.5238C249.597 58.6166 249.66 58.7264 249.698 58.8459C249.736 58.9654 249.748 59.0917 249.733 59.2162C249.718 59.3407 249.676 59.4604 249.61 59.5672C249.425 59.8706 230.544 90.2703 190.748 127.14C141.683 172.158 84.2731 207.125 21.7616 230.065C74.0427 215.316 214.233 167.843 276.91 71.4398C277.028 71.2582 277.21 71.127 277.419 71.0719C277.629 71.0168 277.851 71.0417 278.043 71.1417L294.923 79.911L289.766 14.9606L228.316 49.4346Z" fill="#7878FA"/>
<path d="M33.0547 57.7622C33.0547 61.0068 33.6938 64.2196 34.9354 67.2173C36.1771 70.2149 37.997 72.9387 40.2913 75.233C42.5856 77.5273 45.3094 79.3472 48.307 80.5889C51.3047 81.8305 54.5175 82.4696 57.7622 82.4696C61.0068 82.4696 64.2196 81.8305 67.2173 80.5889C70.2149 79.3472 72.9387 77.5273 75.233 75.233C77.5273 72.9387 79.3472 70.2149 80.5889 67.2173C81.8305 64.2196 82.4696 61.0068 82.4696 57.7622C82.4696 51.2093 79.8665 44.9249 75.233 40.2913C70.5994 35.6578 64.315 33.0547 57.7622 33.0547C51.2093 33.0547 44.9249 35.6578 40.2913 40.2913C35.6578 44.9249 33.0547 51.2093 33.0547 57.7622Z" fill="#FF7262"/>
<path d="M57.7626 83.3341C52.7031 83.3345 47.7572 81.8344 43.5503 79.0236C39.3435 76.2128 36.0647 72.2176 34.1286 67.5433C32.1925 62.8689 31.6861 57.7254 32.6734 52.7632C33.6608 47.801 36.0975 43.2431 39.6755 39.6659C43.2534 36.0887 47.8118 33.6529 52.7742 32.6666C57.7366 31.6802 62.88 32.1877 67.554 34.1247C72.2279 36.0618 76.2225 39.3414 79.0324 43.5488C81.8423 47.7563 83.3414 52.7025 83.34 57.7619C83.3308 64.5422 80.6329 71.042 75.838 75.8359C71.0432 80.6297 64.5428 83.3263 57.7626 83.3341ZM57.7626 33.9192C53.0485 33.9188 48.4402 35.3163 44.5204 37.9349C40.6005 40.5535 37.5452 44.2756 35.7406 48.6306C33.9361 52.9856 33.4634 57.7778 34.3823 62.4015C35.3013 67.0251 37.5706 71.2724 40.9033 74.6063C44.236 77.9403 48.4825 80.2111 53.1058 81.1317C57.7291 82.0524 62.5215 81.5815 66.8771 79.7785C71.2328 77.9756 74.956 74.9215 77.576 71.0027C80.196 67.0838 81.5952 62.476 81.5966 57.7619C81.5897 51.4427 79.0764 45.3843 74.6082 40.9158C70.14 36.4472 64.0818 33.9335 57.7626 33.9262V33.9192Z" fill="#7878FA"/>
<path d="M57.7633 28.0461C57.5321 28.0461 57.3104 27.9542 57.1469 27.7908C56.9834 27.6273 56.8916 27.4056 56.8916 27.1744V0.8717C56.8916 0.640511 56.9834 0.418791 57.1469 0.255315C57.3104 0.0918397 57.5321 0 57.7633 0C57.9945 0 58.2162 0.0918397 58.3797 0.255315C58.5432 0.418791 58.635 0.640511 58.635 0.8717V27.1744C58.635 27.4056 58.5432 27.6273 58.3797 27.7908C58.2162 27.9542 57.9945 28.0461 57.7633 28.0461Z" fill="#7878FA"/>
<path d="M114.653 58.634H88.3502C88.119 58.634 87.8973 58.5422 87.7338 58.3787C87.5704 58.2152 87.4785 57.9935 87.4785 57.7623C87.4785 57.5311 87.5704 57.3094 87.7338 57.1459C87.8973 56.9825 88.119 56.8906 88.3502 56.8906H114.653C114.884 56.8906 115.106 56.9825 115.269 57.1459C115.433 57.3094 115.525 57.5311 115.525 57.7623C115.525 57.9935 115.433 58.2152 115.269 58.3787C115.106 58.5422 114.884 58.634 114.653 58.634Z" fill="#7878FA"/>
<path d="M57.7633 115.525C57.5321 115.525 57.3104 115.433 57.1469 115.269C56.9834 115.106 56.8916 114.884 56.8916 114.653V88.3502C56.8916 88.119 56.9834 87.8973 57.1469 87.7338C57.3104 87.5704 57.5321 87.4785 57.7633 87.4785C57.9945 87.4785 58.2162 87.5704 58.3797 87.7338C58.5432 87.8973 58.635 88.119 58.635 88.3502V114.653C58.635 114.884 58.5432 115.106 58.3797 115.269C58.2162 115.433 57.9945 115.525 57.7633 115.525Z" fill="#7878FA"/>
<path d="M27.1744 58.634H0.8717C0.640511 58.634 0.418792 58.5422 0.255316 58.3787C0.0918406 58.2152 0 57.9935 0 57.7623C0 57.5311 0.0918406 57.3094 0.255316 57.1459C0.418792 56.9825 0.640511 56.8906 0.8717 56.8906H27.1744C27.4056 56.8906 27.6273 56.9825 27.7908 57.1459C27.9542 57.3094 28.0461 57.5311 28.0461 57.7623C28.0461 57.9935 27.9542 58.2152 27.7908 58.3787C27.6273 58.5422 27.4056 58.634 27.1744 58.634Z" fill="#7878FA"/>
<path d="M73.2656 28.6776C73.1163 28.6771 72.9697 28.6384 72.8397 28.565C72.7097 28.4916 72.6008 28.3861 72.5232 28.2586C72.4457 28.131 72.4023 27.9857 72.397 27.8365C72.3918 27.6874 72.4249 27.5393 72.4933 27.4066L81.6967 9.62396C81.7456 9.5164 81.8159 9.4199 81.9033 9.34035C81.9907 9.2608 82.0934 9.19985 82.2051 9.1612C82.3168 9.12256 82.4351 9.10703 82.553 9.11555C82.6709 9.12408 82.7858 9.15648 82.8907 9.21079C82.9957 9.26511 83.0885 9.3402 83.1636 9.4315C83.2386 9.5228 83.2943 9.62841 83.3272 9.7419C83.3602 9.85539 83.3697 9.9744 83.3553 10.0917C83.3408 10.209 83.3026 10.3221 83.2431 10.4242L74.0397 28.2069C73.9662 28.3487 73.8551 28.4677 73.7186 28.5507C73.5821 28.6337 73.4254 28.6776 73.2656 28.6776Z" fill="#7878FA"/>
<path d="M105.74 82.8659C105.437 82.8659 106.612 83.3994 87.476 73.7462C87.2696 73.6419 87.113 73.4599 87.0407 73.2402C86.9685 73.0205 86.9864 72.7811 87.0907 72.5746C87.195 72.3682 87.377 72.2116 87.5967 72.1394C87.8164 72.0671 88.0558 72.0851 88.2623 72.1893L106.134 81.2167C106.309 81.3053 106.449 81.4501 106.531 81.628C106.613 81.8058 106.633 82.0062 106.588 82.1968C106.542 82.3874 106.434 82.5571 106.28 82.6785C106.126 82.7999 105.936 82.8659 105.74 82.8659Z" fill="#7878FA"/>
<path d="M34.0066 106.852C33.8585 106.852 33.7129 106.814 33.5835 106.742C33.4541 106.67 33.3452 106.566 33.267 106.44C33.1889 106.314 33.1441 106.171 33.1368 106.023C33.1295 105.875 33.1601 105.728 33.2255 105.595L42.0733 87.6377C42.1752 87.4296 42.3557 87.2706 42.5749 87.1955C42.7941 87.1205 43.0341 87.1356 43.2422 87.2376C43.4503 87.3395 43.6093 87.5199 43.6844 87.7392C43.7594 87.9584 43.7443 88.1984 43.6423 88.4065L34.7946 106.364C34.7224 106.511 34.6102 106.635 34.4708 106.721C34.3314 106.807 34.1705 106.853 34.0066 106.852Z" fill="#7878FA"/>
<path d="M27.3586 44.0292C27.0657 44.0292 28.2059 44.5522 8.93434 35.2739C8.82449 35.2288 8.72501 35.1617 8.64199 35.0768C8.55898 34.9919 8.49419 34.891 8.45159 34.7801C8.40899 34.6693 8.38948 34.5509 8.39426 34.4323C8.39904 34.3137 8.42802 34.1972 8.4794 34.0902C8.53078 33.9831 8.60349 33.8877 8.69307 33.8098C8.78264 33.7318 8.8872 33.673 9.00032 33.6369C9.11344 33.6009 9.23275 33.5883 9.35091 33.5999C9.46908 33.6116 9.58361 33.6473 9.68749 33.7048L27.7352 42.3643C27.9176 42.4473 28.0658 42.5906 28.1549 42.7702C28.244 42.9497 28.2685 43.1545 28.2243 43.3499C28.1801 43.5454 28.0698 43.7197 27.9122 43.8434C27.7545 43.9672 27.559 44.0328 27.3586 44.0292Z" fill="#7878FA"/>
<path d="M87.4517 42.6256C87.2576 42.6258 87.069 42.5612 86.9157 42.4421C86.7625 42.3229 86.6534 42.156 86.6058 41.9678C86.5581 41.7797 86.5746 41.581 86.6527 41.4033C86.7308 41.2256 86.866 41.079 87.0368 40.9868L104.659 31.4835C104.76 31.4291 104.87 31.3951 104.984 31.3835C105.098 31.3718 105.213 31.3826 105.323 31.4154C105.432 31.4482 105.535 31.5023 105.623 31.5745C105.712 31.6468 105.786 31.7358 105.84 31.8366C105.895 31.9373 105.929 32.0478 105.94 32.1616C105.952 32.2755 105.941 32.3906 105.908 32.5003C105.876 32.6099 105.821 32.7121 105.749 32.8009C105.677 32.8897 105.588 32.9633 105.487 33.0177C86.6916 43.1817 87.7742 42.6256 87.4517 42.6256Z" fill="#7878FA"/>
<path d="M83.7416 105.691C83.5855 105.691 83.4324 105.649 83.298 105.569C83.1637 105.49 83.0532 105.376 82.978 105.239L73.3021 87.7129C73.1994 87.5114 73.179 87.2778 73.2453 87.0615C73.3116 86.8452 73.4594 86.6632 73.6575 86.5539C73.8555 86.4445 74.0883 86.4165 74.3067 86.4756C74.525 86.5348 74.7118 86.6765 74.8276 86.8708L84.5052 104.399C84.5782 104.532 84.6154 104.681 84.613 104.833C84.6107 104.984 84.5689 105.132 84.4918 105.263C84.4148 105.393 84.305 105.501 84.1735 105.576C84.0419 105.651 83.8931 105.691 83.7416 105.691Z" fill="#7878FA"/>
<path d="M10.9667 85.0792C10.7737 85.0796 10.586 85.0161 10.433 84.8984C10.2801 84.7808 10.1705 84.6157 10.1214 84.429C10.0724 84.2424 10.0866 84.0448 10.162 83.8671C10.2373 83.6894 10.3695 83.5418 10.5378 83.4473L27.9718 73.5971C28.0715 73.5408 28.1813 73.5047 28.295 73.4908C28.4086 73.4769 28.5239 73.4856 28.6343 73.5162C28.7446 73.5469 28.8478 73.599 28.938 73.6696C29.0282 73.7402 29.1036 73.8278 29.1599 73.9275C29.2162 74.0272 29.2524 74.137 29.2662 74.2507C29.2801 74.3644 29.2715 74.4797 29.2408 74.59C29.2101 74.7003 29.158 74.8035 29.0874 74.8937C29.0169 74.9839 28.9292 75.0593 28.8295 75.1156C10.2222 85.6301 11.3049 85.0792 10.9667 85.0792Z" fill="#7878FA"/>
<path d="M40.8758 29.4365C40.7228 29.4365 40.5725 29.3962 40.4399 29.3197C40.3074 29.2432 40.1974 29.1332 40.1209 29.0007L30.0963 11.6678C29.9826 11.4677 29.9526 11.2307 30.0129 11.0085C30.0732 10.7864 30.2189 10.5971 30.4183 10.482C30.6176 10.3669 30.8544 10.3354 31.0769 10.3942C31.2995 10.453 31.4897 10.5975 31.6061 10.7961L41.6289 28.129C41.7054 28.2613 41.7456 28.4115 41.7457 28.5644C41.7458 28.7172 41.7057 28.8674 41.6294 28.9999C41.5531 29.1324 41.4433 29.2424 41.311 29.3191C41.1787 29.3957 41.0287 29.4362 40.8758 29.4365Z" fill="#7878FA"/>
</svg>
