<svg width="12" height="12" viewBox="0 0 12 12" fill="none" xmlns="http://www.w3.org/2000/svg">
<path d="M3.33182 11.8713C3.2403 11.9329 3.12833 11.9563 3.0198 11.9365C2.91127 11.9166 2.81478 11.8552 2.75092 11.7652C2.72001 11.7196 2.69857 11.6683 2.68788 11.6143C2.67718 11.5602 2.67744 11.5046 2.68865 11.4506C2.69985 11.3967 2.72178 11.3456 2.75312 11.3003C2.78446 11.255 2.82457 11.2164 2.87109 11.1869L5.02355 9.80663L5.63165 10.238L3.33182 11.8713ZM9.31647 11.4508C9.33325 11.5321 9.32518 11.6165 9.29332 11.6931C9.26145 11.7698 9.20727 11.835 9.13781 11.8804C9.06835 11.9258 8.98683 11.9493 8.90386 11.9477C8.82088 11.9462 8.7403 11.9197 8.6726 11.8717L2.66674 7.60919C2.63012 7.58322 2.58627 7.56941 2.54138 7.56972C2.49649 7.57003 2.45283 7.58443 2.41656 7.6109C2.16282 7.7765 1.86447 7.86048 1.56159 7.85156C1.25872 7.84264 0.965831 7.74124 0.722271 7.56099C0.394571 7.34604 0.155918 7.01957 0.0505514 6.64209C0.000132739 6.4772 -0.0127815 6.30312 0.0127538 6.13259C0.038289 5.96206 0.101628 5.7994 0.198135 5.65651C0.294642 5.51362 0.421876 5.39411 0.570526 5.30673C0.719177 5.21935 0.885483 5.16631 1.05727 5.1515C1.44669 5.10779 1.83875 5.20672 2.16081 5.42995C2.41899 5.58841 2.6225 5.82207 2.74403 6.09954C2.86555 6.37702 2.89928 6.68503 2.84067 6.98223C2.82966 7.0258 2.83263 7.07172 2.84916 7.11351C2.86569 7.15529 2.89494 7.19082 2.93278 7.21507L9.13462 11.1867C9.18114 11.2162 9.22122 11.2548 9.25246 11.3002C9.28371 11.3456 9.30548 11.3968 9.31647 11.4508ZM11.2828 7.56056C11.0392 7.74077 10.7462 7.8421 10.4433 7.85095C10.1404 7.85979 9.84202 7.77573 9.58828 7.61004C9.55202 7.58358 9.50836 7.56917 9.46347 7.56886C9.41858 7.56856 9.37472 7.58236 9.3381 7.60833L6.96845 9.29063L6.4004 8.92649L9.07229 7.21292C9.11004 7.18871 9.13923 7.15325 9.15576 7.11155C9.17228 7.06986 9.1753 7.02402 9.16439 6.98052C9.10695 6.68327 9.1413 6.37558 9.26289 6.09832C9.38448 5.82106 9.58754 5.58735 9.84511 5.42824C10.5305 4.96622 11.4117 5.06818 11.8078 5.65486C12.2038 6.24154 11.968 7.09854 11.2828 7.56056Z" fill="#F0635A"/>
<path d="M4.03635 6.63973L3.95068 6.21133H8.05468L7.969 6.63973H4.03635ZM3.21812 0.428032C3.42225 0.427509 3.62429 0.469086 3.81162 0.550167C3.99895 0.631247 4.16755 0.750087 4.30688 0.899264C4.33069 0.92444 4.36025 0.943465 4.39303 0.954705C4.4258 0.965946 4.46082 0.969068 4.49506 0.963802C4.52931 0.958537 4.56177 0.945041 4.58966 0.924473C4.61754 0.903906 4.64002 0.87688 4.65517 0.845715C4.77753 0.592305 4.96887 0.378535 5.20722 0.228943C5.44557 0.0793506 5.72127 0 6.00268 0C6.28408 0 6.55978 0.0793506 6.79813 0.228943C7.03648 0.378535 7.22782 0.592305 7.35018 0.845715C7.36533 0.87688 7.38781 0.903906 7.41569 0.924473C7.44358 0.945041 7.47604 0.958537 7.51029 0.963802C7.54453 0.969068 7.57955 0.965946 7.61232 0.954705C7.6451 0.943465 7.67466 0.92444 7.69847 0.899264C7.8378 0.750087 8.0064 0.631247 8.19373 0.550167C8.38106 0.469086 8.5831 0.427509 8.78723 0.428032C9.18489 0.428032 9.56626 0.586002 9.84745 0.867189C10.1286 1.14838 10.2866 1.52975 10.2866 1.92741C10.2866 2.32507 10.1286 2.70644 9.84745 2.98762C9.56626 3.26881 9.18489 3.42678 8.78723 3.42678C8.73785 3.42677 8.68998 3.44382 8.65173 3.47505C8.61348 3.50627 8.58719 3.54976 8.57732 3.59814L8.14035 5.78294H7.32063L7.49991 4.52818L7.0758 4.46735L6.88795 5.78294H6.21687V3.42678H5.78848V5.78294H5.1174L4.92955 4.46735L4.50544 4.52818L4.68473 5.78294H3.865L3.42804 3.59814C3.41816 3.54976 3.39187 3.50627 3.35362 3.47505C3.31537 3.44382 3.2675 3.42677 3.21812 3.42678C2.82047 3.42678 2.43909 3.26881 2.15791 2.98762C1.87672 2.70644 1.71875 2.32507 1.71875 1.92741C1.71875 1.52975 1.87672 1.14838 2.15791 0.867189C2.43909 0.586002 2.82047 0.428032 3.21812 0.428032Z" fill="#F0635A"/>
</svg>
