<svg width="200" height="112" viewBox="0 0 200 112" fill="none" xmlns="http://www.w3.org/2000/svg">
<path d="M97.742 7.69567V14.682C89.8955 15.8086 83.8626 22.559 83.8626 30.7136C83.8626 39.6571 91.1123 46.9071 100.055 46.9071C103.692 46.9071 107.051 45.7088 109.752 43.6823L114.696 48.6259C110.708 51.8878 105.607 53.8472 100.055 53.8472C87.2792 53.8472 76.9229 43.4903 76.9229 30.7136C76.9229 18.7188 86.0532 8.85467 97.742 7.69567V7.69567ZM123.072 33.027C122.609 37.6791 120.773 41.9265 117.967 45.3525L113.023 40.4112C114.613 38.2922 115.691 35.7706 116.084 33.027H123.074H123.072ZM102.373 7.69567C113.301 8.78064 121.989 17.4719 123.077 28.4002H116.086C115.073 21.3098 109.463 15.6999 102.373 14.6843V7.69336V7.69567Z" fill="#FCFCFC"/>
<path d="M95.7432 18.3692C97.6919 17.7744 99.456 17.4769 101.035 17.4769C103.518 17.4769 105.528 18.2564 107.066 19.8154C108.441 21.2103 109.128 22.9744 109.128 25.1077V28.6154C109.128 29.559 108.8 30.359 108.143 31.0154C107.487 31.6718 106.707 32 105.805 32H99.497C97.7124 32 96.4714 32.5846 95.7739 33.7538C95.3842 34.3487 95.1893 35.0974 95.1893 36C95.1893 38.9949 97.1688 40.4923 101.128 40.4923C102.276 40.4923 103.476 40.3179 104.728 39.9692V41.2923L103.128 43.2615C102.471 43.4667 101.518 43.5897 100.266 43.6308C97.9278 43.6308 95.9996 43.0974 94.4816 42.0308C92.4509 40.6564 91.4355 38.6051 91.4355 35.8769C91.4355 33.9897 91.9483 32.4821 92.9739 31.3538C94.4303 29.6923 96.738 28.8615 99.897 28.8615H104.605C105.118 28.8615 105.374 28.6051 105.374 28.0923V25.3231C105.374 23.9282 104.902 22.8103 103.959 21.9692C103.035 21.1077 101.815 20.6769 100.297 20.6769C99.2919 20.6769 97.7739 20.9026 95.7432 21.3538V18.3692Z" fill="#F0635A"/>
<path d="M20.6154 76.5035V98.1035H15.3538V89.2112H7.16923V98.1035H1.90769V76.5035H7.16923V84.9651H15.3538V76.5035H20.6154ZM39.9829 89.242C39.9829 89.7343 39.9522 90.2471 39.8906 90.7804H27.9829C28.065 91.8471 28.4034 92.6676 28.9983 93.242C29.6137 93.7958 30.3624 94.0727 31.2445 94.0727C32.5573 94.0727 33.4701 93.5189 33.9829 92.4112H39.5829C39.2958 93.5394 38.7727 94.5548 38.0137 95.4574C37.2752 96.3599 36.3419 97.0676 35.2137 97.5804C34.0855 98.0933 32.824 98.3497 31.4291 98.3497C29.747 98.3497 28.2496 97.9907 26.9368 97.2727C25.624 96.5548 24.5983 95.5292 23.8599 94.1958C23.1214 92.8625 22.7522 91.3035 22.7522 89.5189C22.7522 87.7343 23.1111 86.1753 23.8291 84.842C24.5675 83.5086 25.5932 82.483 26.906 81.7651C28.2188 81.0471 29.7265 80.6881 31.4291 80.6881C33.0906 80.6881 34.5675 81.0368 35.8599 81.7343C37.1522 82.4317 38.1573 83.4266 38.8752 84.7189C39.6137 86.0112 39.9829 87.5189 39.9829 89.242ZM34.5983 87.8574C34.5983 86.9548 34.2906 86.2368 33.6752 85.7035C33.0599 85.1702 32.2906 84.9035 31.3675 84.9035C30.4855 84.9035 29.7368 85.1599 29.1214 85.6727C28.5265 86.1856 28.1573 86.9138 28.0137 87.8574H34.5983ZM49.1279 98.3497C47.6304 98.3497 46.2971 98.0933 45.1279 97.5804C43.9587 97.0676 43.0356 96.3702 42.3587 95.4881C41.6817 94.5856 41.3022 93.5804 41.2202 92.4727H46.4202C46.4817 93.0676 46.7587 93.5497 47.251 93.9189C47.7433 94.2881 48.3484 94.4727 49.0663 94.4727C49.7228 94.4727 50.2253 94.3497 50.574 94.1035C50.9433 93.8368 51.1279 93.4984 51.1279 93.0881C51.1279 92.5958 50.8715 92.2368 50.3587 92.0112C49.8458 91.7651 49.0151 91.4984 47.8663 91.2112C46.6356 90.924 45.6099 90.6266 44.7894 90.3189C43.9689 89.9907 43.2612 89.4881 42.6663 88.8112C42.0715 88.1138 41.774 87.1804 41.774 86.0112C41.774 85.0266 42.0407 84.1343 42.574 83.3343C43.1279 82.5138 43.9279 81.8676 44.974 81.3958C46.0407 80.924 47.3022 80.6881 48.7587 80.6881C50.9125 80.6881 52.6048 81.2215 53.8356 82.2881C55.0869 83.3548 55.8048 84.7702 55.9894 86.5343H51.1279C51.0458 85.9394 50.7792 85.4676 50.3279 85.1189C49.8971 84.7702 49.3228 84.5958 48.6048 84.5958C47.9894 84.5958 47.5176 84.7189 47.1894 84.9651C46.8612 85.1907 46.6971 85.5086 46.6971 85.9189C46.6971 86.4112 46.9535 86.7804 47.4663 87.0266C47.9997 87.2727 48.8202 87.5189 49.9279 87.7651C51.1997 88.0933 52.2356 88.4215 53.0356 88.7497C53.8356 89.0574 54.533 89.5702 55.1279 90.2881C55.7433 90.9856 56.0612 91.9292 56.0817 93.1189C56.0817 94.124 55.7946 95.0266 55.2202 95.8266C54.6663 96.6061 53.8561 97.2215 52.7894 97.6727C51.7433 98.124 50.5228 98.3497 49.1279 98.3497ZM65.67 98.3497C64.1725 98.3497 62.8392 98.0933 61.67 97.5804C60.5007 97.0676 59.5776 96.3702 58.9007 95.4881C58.2238 94.5856 57.8443 93.5804 57.7623 92.4727H62.9623C63.0238 93.0676 63.3007 93.5497 63.793 93.9189C64.2853 94.2881 64.8905 94.4727 65.6084 94.4727C66.2648 94.4727 66.7674 94.3497 67.1161 94.1035C67.4853 93.8368 67.67 93.4984 67.67 93.0881C67.67 92.5958 67.4135 92.2368 66.9007 92.0112C66.3879 91.7651 65.5571 91.4984 64.4084 91.2112C63.1776 90.924 62.152 90.6266 61.3315 90.3189C60.511 89.9907 59.8033 89.4881 59.2084 88.8112C58.6135 88.1138 58.3161 87.1804 58.3161 86.0112C58.3161 85.0266 58.5828 84.1343 59.1161 83.3343C59.67 82.5138 60.47 81.8676 61.5161 81.3958C62.5828 80.924 63.8443 80.6881 65.3007 80.6881C67.4546 80.6881 69.1469 81.2215 70.3776 82.2881C71.6289 83.3548 72.3469 84.7702 72.5315 86.5343H67.67C67.5879 85.9394 67.3212 85.4676 66.87 85.1189C66.4392 84.7702 65.8648 84.5958 65.1469 84.5958C64.5315 84.5958 64.0597 84.7189 63.7315 84.9651C63.4033 85.1907 63.2392 85.5086 63.2392 85.9189C63.2392 86.4112 63.4956 86.7804 64.0084 87.0266C64.5417 87.2727 65.3623 87.5189 66.47 87.7651C67.7417 88.0933 68.7776 88.4215 69.5776 88.7497C70.3776 89.0574 71.0751 89.5702 71.67 90.2881C72.2853 90.9856 72.6033 91.9292 72.6238 93.1189C72.6238 94.124 72.3366 95.0266 71.7623 95.8266C71.2084 96.6061 70.3982 97.2215 69.3315 97.6727C68.2853 98.124 67.0648 98.3497 65.67 98.3497ZM74.1812 89.4881C74.1812 87.724 74.5095 86.1753 75.1659 84.842C75.8428 83.5086 76.7556 82.483 77.9043 81.7651C79.053 81.0471 80.3351 80.6881 81.7505 80.6881C82.9607 80.6881 84.0171 80.9343 84.9197 81.4266C85.8428 81.9189 86.5505 82.5651 87.0428 83.3651V80.9343H92.3043V98.1035H87.0428V95.6727C86.53 96.4727 85.812 97.1189 84.8889 97.6112C83.9864 98.1035 82.93 98.3497 81.7197 98.3497C80.3248 98.3497 79.053 97.9907 77.9043 97.2727C76.7556 96.5343 75.8428 95.4984 75.1659 94.1651C74.5095 92.8112 74.1812 91.2522 74.1812 89.4881ZM87.0428 89.5189C87.0428 88.2061 86.6736 87.1702 85.9351 86.4112C85.2171 85.6522 84.3351 85.2727 83.2889 85.2727C82.2428 85.2727 81.3505 85.6522 80.612 86.4112C79.8941 87.1497 79.5351 88.1753 79.5351 89.4881C79.5351 90.801 79.8941 91.8471 80.612 92.6266C81.3505 93.3856 82.2428 93.7651 83.2889 93.7651C84.3351 93.7651 85.2171 93.3856 85.9351 92.6266C86.6736 91.8676 87.0428 90.8317 87.0428 89.5189ZM106.049 80.7497C108.019 80.7497 109.598 81.4061 110.788 82.7189C111.977 84.0112 112.572 85.7958 112.572 88.0727V98.1035H107.342V88.7804C107.342 87.6317 107.044 86.7394 106.449 86.1035C105.854 85.4676 105.054 85.1497 104.049 85.1497C103.044 85.1497 102.244 85.4676 101.649 86.1035C101.054 86.7394 100.757 87.6317 100.757 88.7804V98.1035H95.4954V75.3343H100.757V83.242C101.29 82.483 102.019 81.8779 102.942 81.4266C103.865 80.9753 104.901 80.7497 106.049 80.7497ZM126.718 102.073H121.457V73.0266H126.718V102.073ZM150.962 98.2574C149.506 98.2574 148.244 98.0727 147.178 97.7035C146.131 97.3138 145.321 96.6984 144.747 95.8574C144.173 94.9958 143.844 93.8471 143.762 92.4112L143.208 80.0112H147.547L148.07 90.9035C148.111 91.7445 148.244 92.3907 148.47 92.842C148.716 93.2727 149.065 93.5702 149.516 93.7343C149.967 93.8779 150.552 93.9497 151.27 93.9497C152.049 93.9497 152.603 94.1548 152.931 94.5651C153.26 94.9548 153.424 95.4471 153.424 96.042C153.424 96.6779 153.208 97.2112 152.778 97.642C152.367 98.0522 151.762 98.2574 150.962 98.2574ZM145.331 95.3958C143.957 95.7035 142.634 95.8471 141.362 95.8266C140.09 95.7856 138.952 95.5599 137.947 95.1497C136.942 94.7189 136.142 94.1035 135.547 93.3035C134.973 92.5035 134.685 91.4881 134.685 90.2574C134.685 89.1702 134.921 88.1856 135.393 87.3035C135.885 86.401 136.562 85.6112 137.424 84.9343C138.306 84.2574 139.331 83.683 140.501 83.2112C141.67 82.7394 142.942 82.3804 144.316 82.1343L144.747 86.5035C143.865 86.5445 143.065 86.6676 142.347 86.8727C141.649 87.0574 141.044 87.3035 140.531 87.6112C140.039 87.9189 139.66 88.2676 139.393 88.6574C139.126 89.0266 138.993 89.4266 138.993 89.8574C138.993 90.2061 139.116 90.4933 139.362 90.7189C139.608 90.9445 139.937 91.1292 140.347 91.2727C140.757 91.3958 141.229 91.4676 141.762 91.4881C142.296 91.5086 142.839 91.4779 143.393 91.3958C143.967 91.3138 144.531 91.1804 145.085 90.9958L145.331 95.3958ZM145.424 76.842C144.829 76.842 144.316 76.6368 143.885 76.2266C143.475 75.7958 143.27 75.2933 143.27 74.7189C143.27 74.124 143.475 73.6112 143.885 73.1804C144.316 72.7497 144.829 72.5343 145.424 72.5343C145.998 72.5343 146.49 72.7497 146.901 73.1804C147.311 73.6112 147.516 74.124 147.516 74.7189C147.516 75.2933 147.311 75.7958 146.901 76.2266C146.49 76.6368 145.998 76.842 145.424 76.842ZM140.101 76.8112C139.506 76.8112 138.993 76.6061 138.562 76.1958C138.152 75.7651 137.947 75.2625 137.947 74.6881C137.947 74.0933 138.152 73.5804 138.562 73.1497C138.993 72.7189 139.506 72.5035 140.101 72.5035C140.675 72.5035 141.167 72.7189 141.578 73.1497C141.988 73.5804 142.193 74.0933 142.193 74.6881C142.193 75.2625 141.988 75.7651 141.578 76.1958C141.167 76.6061 140.675 76.8112 140.101 76.8112ZM181.198 98.2574C180.152 98.2574 179.147 98.1651 178.183 97.9804C177.219 97.7753 176.347 97.5086 175.567 97.1804C174.808 96.8522 174.183 96.483 173.69 96.0727L176.46 93.0881C177.198 93.3958 177.957 93.6215 178.737 93.7651C179.516 93.8881 180.439 93.9497 181.506 93.9497C182.285 93.9497 182.839 94.1548 183.167 94.5651C183.516 94.9548 183.69 95.4471 183.69 96.042C183.69 96.6779 183.475 97.2112 183.044 97.642C182.613 98.0522 181.998 98.2574 181.198 98.2574ZM166.275 98.6574C164.367 98.6574 162.778 98.5753 161.506 98.4112C160.254 98.2471 159.239 98.0112 158.46 97.7035C157.68 97.3958 157.065 97.0266 156.613 96.5958C156.162 96.1651 155.793 95.6933 155.506 95.1804L156.367 94.9343C155.854 95.9189 155.27 96.6471 154.613 97.1189C153.957 97.5907 153.27 97.8984 152.552 98.042C151.834 98.1856 151.096 98.2574 150.337 98.2574L150.644 93.9497C151.28 93.9497 151.783 93.8471 152.152 93.642C152.521 93.4368 152.819 93.0984 153.044 92.6266C153.29 92.1548 153.516 91.5292 153.721 90.7497C153.926 89.9702 154.172 89.0163 154.46 87.8881L158.367 88.842C158.224 89.3958 158.101 89.8779 157.998 90.2881C157.916 90.6984 157.844 91.0574 157.783 91.3651C157.742 91.6522 157.721 91.8881 157.721 92.0727C157.721 92.4625 157.813 92.8112 157.998 93.1189C158.183 93.4061 158.542 93.642 159.075 93.8266C159.608 93.9907 160.388 94.124 161.413 94.2266C162.46 94.3086 163.824 94.3497 165.506 94.3497C167.29 94.3497 168.778 94.2881 169.967 94.1651C171.157 94.0215 172.101 93.8266 172.798 93.5804C173.516 93.3138 174.029 92.9958 174.337 92.6266C174.644 92.2368 174.798 91.7958 174.798 91.3035C174.798 90.9138 174.706 90.5548 174.521 90.2266C174.357 89.8779 174.08 89.5907 173.69 89.3651C173.301 89.1394 172.798 89.0266 172.183 89.0266C171.444 89.0266 170.696 89.2112 169.937 89.5804C169.198 89.9292 168.47 90.401 167.752 90.9958C167.034 91.5702 166.347 92.2163 165.69 92.9343C165.054 93.6522 164.48 94.3702 163.967 95.0881L159.352 94.5651C160.152 93.2727 161.054 92.0317 162.06 90.842C163.065 89.6522 164.142 88.6061 165.29 87.7035C166.439 86.7804 167.629 86.0522 168.86 85.5189C170.09 84.9856 171.342 84.7189 172.613 84.7189C173.988 84.7189 175.157 84.9856 176.121 85.5189C177.085 86.0522 177.824 86.7907 178.337 87.7343C178.849 88.6779 179.106 89.7651 179.106 90.9958C179.106 92.4933 178.675 93.8163 177.813 94.9651C176.972 96.1138 175.608 97.0163 173.721 97.6727C171.854 98.3292 169.372 98.6574 166.275 98.6574ZM186.739 103.734V101.58L194.001 99.4266V101.642L186.739 103.734ZM179.995 98.2574L180.303 93.9497C181.411 93.9497 182.508 93.8881 183.595 93.7651C184.682 93.642 185.739 93.4574 186.764 93.2112C187.79 92.9651 188.764 92.6471 189.688 92.2574C190.631 91.8676 191.513 91.3958 192.334 90.842C191.718 90.4727 191.052 90.1548 190.334 89.8881C189.616 89.6215 188.846 89.4266 188.026 89.3035C187.226 89.1599 186.375 89.0881 185.472 89.0881C185.144 89.0881 184.795 89.0984 184.426 89.1189C184.077 89.1394 183.718 89.1804 183.349 89.242C182.98 89.283 182.611 89.3445 182.241 89.4266L181.626 85.2112C182.221 85.0471 182.846 84.9343 183.503 84.8727C184.18 84.7907 184.775 84.7497 185.288 84.7497C186.395 84.7497 187.411 84.8727 188.334 85.1189C189.277 85.3651 190.139 85.6727 190.918 86.042C191.718 86.4112 192.457 86.7804 193.134 87.1497C193.831 87.5189 194.488 87.8266 195.103 88.0727C195.739 88.3189 196.354 88.442 196.949 88.442H198.088L198.58 92.5343C197.698 92.5753 196.867 92.7497 196.088 93.0574C195.329 93.3445 194.57 93.7138 193.811 94.1651C193.072 94.5958 192.272 95.0471 191.411 95.5189C190.57 95.9907 189.616 96.4317 188.549 96.842C187.482 97.2522 186.252 97.5907 184.857 97.8574C183.462 98.124 181.841 98.2574 179.995 98.2574Z" fill="#FCFCFC"/>
</svg>
