<svg width="201" height="112" viewBox="0 0 201 112" fill="none" xmlns="http://www.w3.org/2000/svg">
<path d="M98.242 8.14489V15.1312C90.3955 16.2578 84.3626 23.0082 84.3626 31.1628C84.3626 40.1063 91.6123 47.3563 100.555 47.3563C104.192 47.3563 107.551 46.158 110.252 44.1315L115.196 49.0752C111.208 52.337 106.107 54.2964 100.555 54.2964C87.7792 54.2964 77.4229 43.9395 77.4229 31.1628C77.4229 19.1681 86.5532 9.30388 98.242 8.14489ZM123.572 33.4762C123.109 38.1283 121.273 42.3757 118.467 45.8018L113.523 40.8604C115.113 38.7414 116.191 36.2198 116.584 33.4762H123.574H123.572ZM102.873 8.14489C113.801 9.22986 122.489 17.9212 123.577 28.8495H116.586C115.573 21.759 109.963 16.1491 102.873 15.1336V8.14258V8.14489Z" fill="#4A43EC"/>
<path d="M96.2432 18.8184C98.1919 18.2236 99.956 17.9261 101.535 17.9261C104.018 17.9261 106.028 18.7056 107.566 20.2646C108.941 21.6595 109.628 23.4236 109.628 25.5569V29.0646C109.628 30.0082 109.3 30.8082 108.643 31.4646C107.987 32.121 107.207 32.4492 106.305 32.4492H99.997C98.2124 32.4492 96.9714 33.0338 96.2739 34.2031C95.8842 34.7979 95.6893 35.5467 95.6893 36.4492C95.6893 39.4441 97.6688 40.9415 101.628 40.9415C102.776 40.9415 103.976 40.7672 105.228 40.4184V41.7415L103.628 43.7108C102.971 43.9159 102.018 44.039 100.766 44.08C98.4278 44.08 96.4996 43.5467 94.9816 42.48C92.9509 41.1056 91.9355 39.0543 91.9355 36.3261C91.9355 34.439 92.4483 32.9313 93.4739 31.8031C94.9303 30.1415 97.238 29.3108 100.397 29.3108H105.105C105.618 29.3108 105.874 29.0543 105.874 28.5415V25.7723C105.874 24.3774 105.402 23.2595 104.459 22.4184C103.535 21.5569 102.315 21.1261 100.797 21.1261C99.7919 21.1261 98.2739 21.3518 96.2432 21.8031V18.8184Z" fill="#F0635A"/>
<path d="M21.1154 76.9527V98.5527H15.8538V89.6604H7.66923V98.5527H2.40769V76.9527H7.66923V85.4143H15.8538V76.9527H21.1154ZM40.4829 89.6912C40.4829 90.1835 40.4522 90.6963 40.3906 91.2297H28.4829C28.565 92.2963 28.9034 93.1168 29.4983 93.6912C30.1137 94.245 30.8624 94.522 31.7445 94.522C33.0573 94.522 33.9701 93.9681 34.4829 92.8604H40.0829C39.7958 93.9886 39.2727 95.004 38.5137 95.9066C37.7752 96.8091 36.8419 97.5168 35.7137 98.0297C34.5855 98.5425 33.324 98.7989 31.9291 98.7989C30.247 98.7989 28.7496 98.4399 27.4368 97.722C26.124 97.004 25.0983 95.9784 24.3599 94.645C23.6214 93.3117 23.2522 91.7527 23.2522 89.9681C23.2522 88.1835 23.6111 86.6245 24.3291 85.2912C25.0675 83.9579 26.0932 82.9322 27.406 82.2143C28.7188 81.4963 30.2265 81.1373 31.9291 81.1373C33.5906 81.1373 35.0675 81.4861 36.3599 82.1835C37.6522 82.8809 38.6573 83.8758 39.3752 85.1681C40.1137 86.4604 40.4829 87.9681 40.4829 89.6912ZM35.0983 88.3066C35.0983 87.404 34.7906 86.6861 34.1752 86.1527C33.5599 85.6194 32.7906 85.3527 31.8675 85.3527C30.9855 85.3527 30.2368 85.6091 29.6214 86.122C29.0265 86.6348 28.6573 87.363 28.5137 88.3066H35.0983ZM49.6279 98.7989C48.1304 98.7989 46.7971 98.5425 45.6279 98.0297C44.4587 97.5168 43.5356 96.8194 42.8587 95.9373C42.1817 95.0348 41.8022 94.0297 41.7202 92.922H46.9202C46.9817 93.5168 47.2587 93.9989 47.751 94.3681C48.2433 94.7373 48.8484 94.922 49.5663 94.922C50.2228 94.922 50.7253 94.7989 51.074 94.5527C51.4433 94.2861 51.6279 93.9476 51.6279 93.5373C51.6279 93.045 51.3715 92.6861 50.8587 92.4604C50.3458 92.2143 49.5151 91.9476 48.3663 91.6604C47.1356 91.3732 46.1099 91.0758 45.2894 90.7681C44.4689 90.4399 43.7612 89.9373 43.1663 89.2604C42.5715 88.563 42.274 87.6297 42.274 86.4604C42.274 85.4758 42.5407 84.5835 43.074 83.7835C43.6279 82.963 44.4279 82.3168 45.474 81.845C46.5407 81.3732 47.8022 81.1373 49.2587 81.1373C51.4125 81.1373 53.1048 81.6707 54.3356 82.7373C55.5869 83.804 56.3048 85.2194 56.4894 86.9835H51.6279C51.5458 86.3886 51.2792 85.9168 50.8279 85.5681C50.3971 85.2194 49.8228 85.045 49.1048 85.045C48.4894 85.045 48.0176 85.1681 47.6894 85.4143C47.3612 85.6399 47.1971 85.9579 47.1971 86.3681C47.1971 86.8604 47.4535 87.2297 47.9663 87.4758C48.4997 87.722 49.3202 87.9681 50.4279 88.2143C51.6997 88.5425 52.7356 88.8707 53.5356 89.1989C54.3356 89.5066 55.033 90.0194 55.6279 90.7373C56.2433 91.4348 56.5612 92.3784 56.5817 93.5681C56.5817 94.5732 56.2946 95.4758 55.7202 96.2758C55.1663 97.0553 54.3561 97.6707 53.2894 98.122C52.2433 98.5732 51.0228 98.7989 49.6279 98.7989ZM66.17 98.7989C64.6725 98.7989 63.3392 98.5425 62.17 98.0297C61.0007 97.5168 60.0776 96.8194 59.4007 95.9373C58.7238 95.0348 58.3443 94.0297 58.2623 92.922H63.4623C63.5238 93.5168 63.8007 93.9989 64.293 94.3681C64.7853 94.7373 65.3905 94.922 66.1084 94.922C66.7648 94.922 67.2674 94.7989 67.6161 94.5527C67.9853 94.2861 68.17 93.9476 68.17 93.5373C68.17 93.045 67.9135 92.6861 67.4007 92.4604C66.8879 92.2143 66.0571 91.9476 64.9084 91.6604C63.6776 91.3732 62.652 91.0758 61.8315 90.7681C61.011 90.4399 60.3033 89.9373 59.7084 89.2604C59.1135 88.563 58.8161 87.6297 58.8161 86.4604C58.8161 85.4758 59.0828 84.5835 59.6161 83.7835C60.17 82.963 60.97 82.3168 62.0161 81.845C63.0828 81.3732 64.3443 81.1373 65.8007 81.1373C67.9546 81.1373 69.6469 81.6707 70.8776 82.7373C72.1289 83.804 72.8469 85.2194 73.0315 86.9835H68.17C68.0879 86.3886 67.8212 85.9168 67.37 85.5681C66.9392 85.2194 66.3648 85.045 65.6469 85.045C65.0315 85.045 64.5597 85.1681 64.2315 85.4143C63.9033 85.6399 63.7392 85.9579 63.7392 86.3681C63.7392 86.8604 63.9956 87.2297 64.5084 87.4758C65.0417 87.722 65.8623 87.9681 66.97 88.2143C68.2417 88.5425 69.2776 88.8707 70.0776 89.1989C70.8776 89.5066 71.5751 90.0194 72.17 90.7373C72.7853 91.4348 73.1033 92.3784 73.1238 93.5681C73.1238 94.5732 72.8366 95.4758 72.2623 96.2758C71.7084 97.0553 70.8982 97.6707 69.8315 98.122C68.7853 98.5732 67.5648 98.7989 66.17 98.7989ZM74.6812 89.9373C74.6812 88.1732 75.0095 86.6245 75.6659 85.2912C76.3428 83.9579 77.2556 82.9322 78.4043 82.2143C79.553 81.4963 80.8351 81.1373 82.2505 81.1373C83.4607 81.1373 84.5171 81.3835 85.4197 81.8758C86.3428 82.3681 87.0505 83.0143 87.5428 83.8143V81.3835H92.8043V98.5527H87.5428V96.122C87.03 96.922 86.312 97.5681 85.3889 98.0604C84.4864 98.5527 83.43 98.7989 82.2197 98.7989C80.8248 98.7989 79.553 98.4399 78.4043 97.722C77.2556 96.9835 76.3428 95.9476 75.6659 94.6143C75.0095 93.2604 74.6812 91.7015 74.6812 89.9373ZM87.5428 89.9681C87.5428 88.6553 87.1736 87.6194 86.4351 86.8604C85.7171 86.1015 84.8351 85.722 83.7889 85.722C82.7428 85.722 81.8505 86.1015 81.112 86.8604C80.3941 87.5989 80.0351 88.6245 80.0351 89.9373C80.0351 91.2502 80.3941 92.2963 81.112 93.0758C81.8505 93.8348 82.7428 94.2143 83.7889 94.2143C84.8351 94.2143 85.7171 93.8348 86.4351 93.0758C87.1736 92.3168 87.5428 91.2809 87.5428 89.9681ZM106.549 81.1989C108.519 81.1989 110.098 81.8553 111.288 83.1681C112.477 84.4604 113.072 86.245 113.072 88.522V98.5527H107.842V89.2297C107.842 88.0809 107.544 87.1886 106.949 86.5527C106.354 85.9168 105.554 85.5989 104.549 85.5989C103.544 85.5989 102.744 85.9168 102.149 86.5527C101.554 87.1886 101.257 88.0809 101.257 89.2297V98.5527H95.9954V75.7835H101.257V83.6912C101.79 82.9322 102.519 82.3271 103.442 81.8758C104.365 81.4245 105.401 81.1989 106.549 81.1989ZM127.218 102.522H121.957V73.4758H127.218V102.522ZM151.462 98.7066C150.006 98.7066 148.744 98.522 147.678 98.1527C146.631 97.763 145.821 97.1476 145.247 96.3066C144.673 95.445 144.344 94.2963 144.262 92.8604L143.708 80.4604H148.047L148.57 91.3527C148.611 92.1938 148.744 92.8399 148.97 93.2912C149.216 93.722 149.565 94.0194 150.016 94.1835C150.467 94.3271 151.052 94.3989 151.77 94.3989C152.549 94.3989 153.103 94.604 153.431 95.0143C153.76 95.404 153.924 95.8963 153.924 96.4912C153.924 97.1271 153.708 97.6604 153.278 98.0912C152.867 98.5015 152.262 98.7066 151.462 98.7066ZM145.831 95.845C144.457 96.1527 143.134 96.2963 141.862 96.2758C140.59 96.2348 139.452 96.0091 138.447 95.5989C137.442 95.1681 136.642 94.5527 136.047 93.7527C135.473 92.9527 135.185 91.9373 135.185 90.7066C135.185 89.6194 135.421 88.6348 135.893 87.7527C136.385 86.8502 137.062 86.0604 137.924 85.3835C138.806 84.7066 139.831 84.1322 141.001 83.6604C142.17 83.1886 143.442 82.8297 144.816 82.5835L145.247 86.9527C144.365 86.9938 143.565 87.1168 142.847 87.322C142.149 87.5066 141.544 87.7527 141.031 88.0604C140.539 88.3681 140.16 88.7168 139.893 89.1066C139.626 89.4758 139.493 89.8758 139.493 90.3066C139.493 90.6553 139.616 90.9425 139.862 91.1681C140.108 91.3938 140.437 91.5784 140.847 91.722C141.257 91.845 141.729 91.9168 142.262 91.9373C142.796 91.9579 143.339 91.9271 143.893 91.845C144.467 91.763 145.031 91.6297 145.585 91.445L145.831 95.845ZM145.924 77.2912C145.329 77.2912 144.816 77.0861 144.385 76.6758C143.975 76.245 143.77 75.7425 143.77 75.1681C143.77 74.5732 143.975 74.0604 144.385 73.6297C144.816 73.1989 145.329 72.9835 145.924 72.9835C146.498 72.9835 146.99 73.1989 147.401 73.6297C147.811 74.0604 148.016 74.5732 148.016 75.1681C148.016 75.7425 147.811 76.245 147.401 76.6758C146.99 77.0861 146.498 77.2912 145.924 77.2912ZM140.601 77.2604C140.006 77.2604 139.493 77.0553 139.062 76.645C138.652 76.2143 138.447 75.7117 138.447 75.1373C138.447 74.5425 138.652 74.0297 139.062 73.5989C139.493 73.1681 140.006 72.9527 140.601 72.9527C141.175 72.9527 141.667 73.1681 142.078 73.5989C142.488 74.0297 142.693 74.5425 142.693 75.1373C142.693 75.7117 142.488 76.2143 142.078 76.645C141.667 77.0553 141.175 77.2604 140.601 77.2604ZM181.698 98.7066C180.652 98.7066 179.647 98.6143 178.683 98.4297C177.719 98.2245 176.847 97.9579 176.067 97.6297C175.308 97.3015 174.683 96.9322 174.19 96.522L176.96 93.5373C177.698 93.845 178.457 94.0707 179.237 94.2143C180.016 94.3373 180.939 94.3989 182.006 94.3989C182.785 94.3989 183.339 94.604 183.667 95.0143C184.016 95.404 184.19 95.8963 184.19 96.4912C184.19 97.1271 183.975 97.6604 183.544 98.0912C183.113 98.5015 182.498 98.7066 181.698 98.7066ZM166.775 99.1066C164.867 99.1066 163.278 99.0245 162.006 98.8604C160.754 98.6963 159.739 98.4604 158.96 98.1527C158.18 97.845 157.565 97.4758 157.113 97.045C156.662 96.6143 156.293 96.1425 156.006 95.6297L156.867 95.3835C156.354 96.3681 155.77 97.0963 155.113 97.5681C154.457 98.0399 153.77 98.3476 153.052 98.4912C152.334 98.6348 151.596 98.7066 150.837 98.7066L151.144 94.3989C151.78 94.3989 152.283 94.2963 152.652 94.0912C153.021 93.8861 153.319 93.5476 153.544 93.0758C153.79 92.604 154.016 91.9784 154.221 91.1989C154.426 90.4194 154.672 89.4656 154.96 88.3373L158.867 89.2912C158.724 89.845 158.601 90.3271 158.498 90.7373C158.416 91.1476 158.344 91.5066 158.283 91.8143C158.242 92.1015 158.221 92.3373 158.221 92.522C158.221 92.9117 158.313 93.2604 158.498 93.5681C158.683 93.8553 159.042 94.0912 159.575 94.2758C160.108 94.4399 160.888 94.5732 161.913 94.6758C162.96 94.7579 164.324 94.7989 166.006 94.7989C167.79 94.7989 169.278 94.7373 170.467 94.6143C171.657 94.4707 172.601 94.2758 173.298 94.0297C174.016 93.763 174.529 93.445 174.837 93.0758C175.144 92.6861 175.298 92.245 175.298 91.7527C175.298 91.363 175.206 91.004 175.021 90.6758C174.857 90.3271 174.58 90.0399 174.19 89.8143C173.801 89.5886 173.298 89.4758 172.683 89.4758C171.944 89.4758 171.196 89.6604 170.437 90.0297C169.698 90.3784 168.97 90.8502 168.252 91.445C167.534 92.0194 166.847 92.6656 166.19 93.3835C165.554 94.1015 164.98 94.8194 164.467 95.5373L159.852 95.0143C160.652 93.722 161.554 92.4809 162.56 91.2912C163.565 90.1015 164.642 89.0553 165.79 88.1527C166.939 87.2297 168.129 86.5015 169.36 85.9681C170.59 85.4348 171.842 85.1681 173.113 85.1681C174.488 85.1681 175.657 85.4348 176.621 85.9681C177.585 86.5015 178.324 87.2399 178.837 88.1835C179.349 89.1271 179.606 90.2143 179.606 91.445C179.606 92.9425 179.175 94.2656 178.313 95.4143C177.472 96.563 176.108 97.4656 174.221 98.122C172.354 98.7784 169.872 99.1066 166.775 99.1066ZM187.239 104.184V102.03L194.501 99.8758V102.091L187.239 104.184ZM180.495 98.7066L180.803 94.3989C181.911 94.3989 183.008 94.3373 184.095 94.2143C185.182 94.0912 186.239 93.9066 187.264 93.6604C188.29 93.4143 189.264 93.0963 190.188 92.7066C191.131 92.3168 192.013 91.845 192.834 91.2912C192.218 90.922 191.552 90.604 190.834 90.3373C190.116 90.0707 189.346 89.8758 188.526 89.7527C187.726 89.6091 186.875 89.5373 185.972 89.5373C185.644 89.5373 185.295 89.5476 184.926 89.5681C184.577 89.5886 184.218 89.6297 183.849 89.6912C183.48 89.7322 183.111 89.7938 182.741 89.8758L182.126 85.6604C182.721 85.4963 183.346 85.3835 184.003 85.322C184.68 85.2399 185.275 85.1989 185.788 85.1989C186.895 85.1989 187.911 85.322 188.834 85.5681C189.777 85.8143 190.639 86.122 191.418 86.4912C192.218 86.8604 192.957 87.2297 193.634 87.5989C194.331 87.9681 194.988 88.2758 195.603 88.522C196.239 88.7681 196.854 88.8912 197.449 88.8912H198.588L199.08 92.9835C198.198 93.0245 197.367 93.1989 196.588 93.5066C195.829 93.7938 195.07 94.163 194.311 94.6143C193.572 95.045 192.772 95.4963 191.911 95.9681C191.07 96.4399 190.116 96.8809 189.049 97.2912C187.982 97.7015 186.752 98.0399 185.357 98.3066C183.962 98.5732 182.341 98.7066 180.495 98.7066Z" fill="#4A43EC"/>
</svg>
